%TF.GenerationSoftware,KiCad,Pcbnew,8.0.1*%
%TF.CreationDate,2024-05-06T13:05:29+02:00*%
%TF.ProjectId,BotBattle,426f7442-6174-4746-9c65-2e6b69636164,rev?*%
%TF.SameCoordinates,Original*%
%TF.FileFunction,Copper,L2,Bot*%
%TF.FilePolarity,Positive*%
%FSLAX46Y46*%
G04 Gerber Fmt 4.6, Leading zero omitted, Abs format (unit mm)*
G04 Created by KiCad (PCBNEW 8.0.1) date 2024-05-06 13:05:29*
%MOMM*%
%LPD*%
G01*
G04 APERTURE LIST*
%TA.AperFunction,ComponentPad*%
%ADD10R,1.524000X1.524000*%
%TD*%
%TA.AperFunction,ComponentPad*%
%ADD11C,1.524000*%
%TD*%
%TA.AperFunction,ComponentPad*%
%ADD12C,1.600000*%
%TD*%
%TA.AperFunction,ComponentPad*%
%ADD13O,1.600000X1.600000*%
%TD*%
%TA.AperFunction,ComponentPad*%
%ADD14R,3.000000X1.500000*%
%TD*%
%TA.AperFunction,ComponentPad*%
%ADD15O,3.000000X1.500000*%
%TD*%
%TA.AperFunction,ComponentPad*%
%ADD16R,1.600000X1.600000*%
%TD*%
%TA.AperFunction,ComponentPad*%
%ADD17R,1.500000X3.000000*%
%TD*%
%TA.AperFunction,ComponentPad*%
%ADD18O,1.500000X3.000000*%
%TD*%
%TA.AperFunction,ComponentPad*%
%ADD19R,1.700000X1.700000*%
%TD*%
%TA.AperFunction,ComponentPad*%
%ADD20O,1.700000X1.700000*%
%TD*%
%TA.AperFunction,ViaPad*%
%ADD21C,2.000000*%
%TD*%
%TA.AperFunction,ViaPad*%
%ADD22C,0.600000*%
%TD*%
%TA.AperFunction,Conductor*%
%ADD23C,0.500000*%
%TD*%
%TA.AperFunction,Conductor*%
%ADD24C,1.000000*%
%TD*%
%TA.AperFunction,Conductor*%
%ADD25C,2.000000*%
%TD*%
%TA.AperFunction,Conductor*%
%ADD26C,2.500000*%
%TD*%
%TA.AperFunction,Conductor*%
%ADD27C,1.599800*%
%TD*%
G04 APERTURE END LIST*
D10*
%TO.P,U1,1,1*%
%TO.N,GND*%
X156720000Y-106620000D03*
D11*
%TO.P,U1,2,2*%
%TO.N,Net-(J3-Pin_24)*%
X159260000Y-106620000D03*
%TO.P,U1,3,3*%
%TO.N,Net-(J3-Pin_19)*%
X161800000Y-106620000D03*
%TO.P,U1,4,4*%
%TO.N,Net-(J3-Pin_21)*%
X164340000Y-106620000D03*
%TO.P,U1,5,5*%
%TO.N,Net-(J3-Pin_19)*%
X166880000Y-106620000D03*
%TO.P,U1,6,6*%
%TO.N,GND*%
X169420000Y-106620000D03*
%TO.P,U1,7,7*%
%TO.N,Net-(J3-3v3_power)*%
X171960000Y-106620000D03*
%TO.P,U1,8,8*%
X174500000Y-106620000D03*
%TO.P,U1,9,9*%
%TO.N,Net-(R1-Pad2)*%
X174500000Y-99000000D03*
%TO.P,U1,10,10*%
%TO.N,unconnected-(U1-Pad10)*%
X171960000Y-99000000D03*
%TO.P,U1,11,11*%
%TO.N,unconnected-(U1-Pad11)*%
X169420000Y-99000000D03*
%TO.P,U1,12,12*%
%TO.N,unconnected-(U1-Pad12)*%
X166880000Y-99000000D03*
%TO.P,U1,13,13*%
%TO.N,unconnected-(U1-Pad13)*%
X164340000Y-99000000D03*
%TO.P,U1,14,14*%
%TO.N,unconnected-(U1-Pad14)*%
X161800000Y-99000000D03*
%TO.P,U1,15,15*%
%TO.N,unconnected-(U1-Pad15)*%
X159260000Y-99000000D03*
%TO.P,U1,16,16*%
%TO.N,unconnected-(U1-Pad16)*%
X156720000Y-99000000D03*
%TD*%
D12*
%TO.P,R1,1*%
%TO.N,Net-(A1-VMOT)*%
X155340000Y-94500000D03*
D13*
%TO.P,R1,2*%
%TO.N,Net-(R1-Pad2)*%
X165500000Y-94500000D03*
%TD*%
D12*
%TO.P,R2,1*%
%TO.N,Net-(R1-Pad2)*%
X168840000Y-94500000D03*
D13*
%TO.P,R2,2*%
%TO.N,GND*%
X179000000Y-94500000D03*
%TD*%
D14*
%TO.P,J1,1,Pin_1*%
%TO.N,Net-(A1-A1)*%
X157500000Y-57000000D03*
D15*
%TO.P,J1,2,Pin_2*%
%TO.N,Net-(A1-A2)*%
X157500000Y-62000000D03*
%TO.P,J1,3,Pin_3*%
%TO.N,Net-(A1-B1)*%
X157500000Y-67000000D03*
%TO.P,J1,4,Pin_4*%
%TO.N,Net-(A1-B2)*%
X157500000Y-72000000D03*
%TD*%
D16*
%TO.P,A1,1,GND*%
%TO.N,GND*%
X183500000Y-54500000D03*
D13*
%TO.P,A1,2,~{FLT}*%
%TO.N,unconnected-(A1-~{FLT}-Pad2)*%
X180960000Y-54500000D03*
%TO.P,A1,3,A2*%
%TO.N,Net-(A1-A2)*%
X178420000Y-54500000D03*
%TO.P,A1,4,A1*%
%TO.N,Net-(A1-A1)*%
X175880000Y-54500000D03*
%TO.P,A1,5,B1*%
%TO.N,Net-(A1-B1)*%
X173340000Y-54500000D03*
%TO.P,A1,6,B2*%
%TO.N,Net-(A1-B2)*%
X170800000Y-54500000D03*
%TO.P,A1,7,GND*%
%TO.N,unconnected-(A1-GND-Pad7)*%
X168260000Y-54500000D03*
%TO.P,A1,8,VMOT*%
%TO.N,Net-(A1-VMOT)*%
X165720000Y-54500000D03*
%TO.P,A1,9,~{EN}*%
%TO.N,Net-(A1-~{EN})*%
X165720000Y-67200000D03*
%TO.P,A1,10,M0*%
%TO.N,unconnected-(A1-M0-Pad10)*%
X168260000Y-67200000D03*
%TO.P,A1,11,M1*%
%TO.N,unconnected-(A1-M1-Pad11)*%
X170800000Y-67200000D03*
%TO.P,A1,12,M2*%
%TO.N,unconnected-(A1-M2-Pad12)*%
X173340000Y-67200000D03*
%TO.P,A1,13,~{RST}*%
%TO.N,Net-(A1-~{RST})*%
X175880000Y-67200000D03*
%TO.P,A1,14,~{SLP}*%
X178420000Y-67200000D03*
%TO.P,A1,15,STEP*%
%TO.N,Net-(A1-STEP)*%
X180960000Y-67200000D03*
%TO.P,A1,16,DIR*%
%TO.N,Net-(A1-DIR)*%
X183500000Y-67200000D03*
%TD*%
D14*
%TO.P,J2,1,Pin_1*%
%TO.N,Net-(A2-A1)*%
X193000000Y-72500000D03*
D15*
%TO.P,J2,2,Pin_2*%
%TO.N,Net-(A2-A2)*%
X193000000Y-67500000D03*
%TO.P,J2,3,Pin_3*%
%TO.N,Net-(A2-B1)*%
X193000000Y-62500000D03*
%TO.P,J2,4,Pin_4*%
%TO.N,Net-(A2-B2)*%
X193000000Y-57500000D03*
%TD*%
D17*
%TO.P,J7,1,Pin_1*%
%TO.N,Net-(A1-VMOT)*%
X171850000Y-129000000D03*
D18*
%TO.P,J7,2,Pin_2*%
%TO.N,GND*%
X176850000Y-129000000D03*
%TD*%
D17*
%TO.P,J6,1,Pin_1*%
%TO.N,Net-(J3-Pin_40)*%
X158350000Y-129000000D03*
D18*
%TO.P,J6,2,Pin_2*%
%TO.N,Net-(J3-Pin_35)*%
X163350000Y-129000000D03*
%TD*%
D16*
%TO.P,A2,1,GND*%
%TO.N,GND*%
X178500000Y-90000000D03*
D13*
%TO.P,A2,2,~{FLT}*%
%TO.N,unconnected-(A2-~{FLT}-Pad2)*%
X178500000Y-87460000D03*
%TO.P,A2,3,A2*%
%TO.N,Net-(A2-A2)*%
X178500000Y-84920000D03*
%TO.P,A2,4,A1*%
%TO.N,Net-(A2-A1)*%
X178500000Y-82380000D03*
%TO.P,A2,5,B1*%
%TO.N,Net-(A2-B1)*%
X178500000Y-79840000D03*
%TO.P,A2,6,B2*%
%TO.N,Net-(A2-B2)*%
X178500000Y-77300000D03*
%TO.P,A2,7,GND*%
%TO.N,unconnected-(A2-GND-Pad7)*%
X178500000Y-74760000D03*
%TO.P,A2,8,VMOT*%
%TO.N,Net-(A1-VMOT)*%
X178500000Y-72220000D03*
%TO.P,A2,9,~{EN}*%
%TO.N,Net-(A2-~{EN})*%
X165800000Y-72220000D03*
%TO.P,A2,10,M0*%
%TO.N,unconnected-(A2-M0-Pad10)*%
X165800000Y-74760000D03*
%TO.P,A2,11,M1*%
%TO.N,unconnected-(A2-M1-Pad11)*%
X165800000Y-77300000D03*
%TO.P,A2,12,M2*%
%TO.N,unconnected-(A2-M2-Pad12)*%
X165800000Y-79840000D03*
%TO.P,A2,13,~{RST}*%
%TO.N,Net-(A2-~{RST})*%
X165800000Y-82380000D03*
%TO.P,A2,14,~{SLP}*%
X165800000Y-84920000D03*
%TO.P,A2,15,STEP*%
%TO.N,Net-(A2-STEP)*%
X165800000Y-87460000D03*
%TO.P,A2,16,DIR*%
%TO.N,Net-(A2-DIR)*%
X165800000Y-90000000D03*
%TD*%
D14*
%TO.P,J5,1,Pin_1*%
%TO.N,GND*%
X160000000Y-119150000D03*
D15*
%TO.P,J5,2,Pin_2*%
%TO.N,Net-(A1-VMOT)*%
X160000000Y-114150000D03*
%TD*%
D19*
%TO.P,J3,1,3v3_power*%
%TO.N,Net-(J3-3v3_power)*%
X149460000Y-83740000D03*
D20*
%TO.P,J3,2,Pin_2*%
%TO.N,unconnected-(J3-Pin_2-Pad2)*%
X152000000Y-83740000D03*
%TO.P,J3,3,GPIO_2(SDA)*%
%TO.N,unconnected-(J3-GPIO_2(SDA)-Pad3)*%
X149460000Y-86280000D03*
%TO.P,J3,4,Pin_4*%
%TO.N,unconnected-(J3-Pin_4-Pad4)*%
X152000000Y-86280000D03*
%TO.P,J3,5,GPIO_3(SCL)*%
%TO.N,unconnected-(J3-GPIO_3(SCL)-Pad5)*%
X149460000Y-88820000D03*
%TO.P,J3,6,Pin_6*%
%TO.N,GND*%
X152000000Y-88820000D03*
%TO.P,J3,7,Pin_7*%
%TO.N,unconnected-(J3-Pin_7-Pad7)*%
X149460000Y-91360000D03*
%TO.P,J3,8,Pin_8*%
%TO.N,unconnected-(J3-Pin_8-Pad8)*%
X152000000Y-91360000D03*
%TO.P,J3,9,Pin_9*%
%TO.N,unconnected-(J3-Pin_9-Pad9)*%
X149460000Y-93900000D03*
%TO.P,J3,10,Pin_10*%
%TO.N,unconnected-(J3-Pin_10-Pad10)*%
X152000000Y-93900000D03*
%TO.P,J3,11,Pin_11*%
%TO.N,Net-(A1-DIR)*%
X149460000Y-96440000D03*
%TO.P,J3,12,Pin_12*%
%TO.N,unconnected-(J3-Pin_12-Pad12)*%
X152000000Y-96440000D03*
%TO.P,J3,13,Pin_13*%
%TO.N,Net-(A1-~{EN})*%
X149460000Y-98980000D03*
%TO.P,J3,14,Pin_14*%
%TO.N,unconnected-(J3-Pin_14-Pad14)*%
X152000000Y-98980000D03*
%TO.P,J3,15,Pin_15*%
%TO.N,unconnected-(J3-Pin_15-Pad15)*%
X149460000Y-101520000D03*
%TO.P,J3,16,Pin_16*%
%TO.N,unconnected-(J3-Pin_16-Pad16)*%
X152000000Y-101520000D03*
%TO.P,J3,17,Pin_17*%
%TO.N,unconnected-(J3-Pin_17-Pad17)*%
X149460000Y-104060000D03*
%TO.P,J3,18,Pin_18*%
%TO.N,unconnected-(J3-Pin_18-Pad18)*%
X152000000Y-104060000D03*
%TO.P,J3,19,Pin_19*%
%TO.N,Net-(J3-Pin_19)*%
X149460000Y-106600000D03*
%TO.P,J3,20,Pin_20*%
%TO.N,unconnected-(J3-Pin_20-Pad20)*%
X152000000Y-106600000D03*
%TO.P,J3,21,Pin_21*%
%TO.N,Net-(J3-Pin_21)*%
X149460000Y-109140000D03*
%TO.P,J3,22,Pin_22*%
%TO.N,unconnected-(J3-Pin_22-Pad22)*%
X152000000Y-109140000D03*
%TO.P,J3,23,Pin_23*%
%TO.N,Net-(J3-Pin_19)*%
X149460000Y-111680000D03*
%TO.P,J3,24,Pin_24*%
%TO.N,Net-(J3-Pin_24)*%
X152000000Y-111680000D03*
%TO.P,J3,25,Pin_25*%
%TO.N,unconnected-(J3-Pin_25-Pad25)*%
X149460000Y-114220000D03*
%TO.P,J3,26,Pin_26*%
%TO.N,unconnected-(J3-Pin_26-Pad26)*%
X152000000Y-114220000D03*
%TO.P,J3,27,Pin_27*%
%TO.N,unconnected-(J3-Pin_27-Pad27)*%
X149460000Y-116760000D03*
%TO.P,J3,28,Pin_28*%
%TO.N,Net-(A2-~{EN})*%
X152000000Y-116760000D03*
%TO.P,J3,29,Pin_29*%
%TO.N,unconnected-(J3-Pin_29-Pad29)*%
X149460000Y-119300000D03*
%TO.P,J3,30,Pin_30*%
%TO.N,unconnected-(J3-Pin_30-Pad30)*%
X152000000Y-119300000D03*
%TO.P,J3,31,Pin_31*%
%TO.N,unconnected-(J3-Pin_31-Pad31)*%
X149460000Y-121840000D03*
%TO.P,J3,32,Pin_32*%
%TO.N,Net-(A2-STEP)*%
X152000000Y-121840000D03*
%TO.P,J3,33,Pin_33*%
%TO.N,Net-(A1-STEP)*%
X149460000Y-124380000D03*
%TO.P,J3,34,Pin_34*%
%TO.N,unconnected-(J3-Pin_34-Pad34)*%
X152000000Y-124380000D03*
%TO.P,J3,35,Pin_35*%
%TO.N,Net-(J3-Pin_35)*%
X149460000Y-126920000D03*
%TO.P,J3,36,Pin_36*%
%TO.N,unconnected-(J3-Pin_36-Pad36)*%
X152000000Y-126920000D03*
%TO.P,J3,37,Pin_37*%
%TO.N,unconnected-(J3-Pin_37-Pad37)*%
X149460000Y-129460000D03*
%TO.P,J3,38,Pin_38*%
%TO.N,Net-(A2-DIR)*%
X152000000Y-129460000D03*
%TO.P,J3,39,Pin_39*%
%TO.N,unconnected-(J3-Pin_39-Pad39)*%
X149460000Y-132000000D03*
%TO.P,J3,40,Pin_40*%
%TO.N,Net-(J3-Pin_40)*%
X152000000Y-132000000D03*
%TD*%
D21*
%TO.N,Net-(A1-VMOT)*%
X176860500Y-108067200D03*
X167149600Y-117778100D03*
D22*
%TO.N,Net-(J3-Pin_19)*%
X157948300Y-114689300D03*
%TO.N,Net-(A1-B1)*%
X165897700Y-63492300D03*
%TO.N,Net-(A1-A2)*%
X175234600Y-59235400D03*
%TO.N,Net-(A1-A1)*%
X173035200Y-59235400D03*
%TO.N,Net-(A1-STEP)*%
X152527500Y-80123700D03*
%TO.N,Net-(J3-Pin_21)*%
X163893700Y-117659400D03*
%TO.N,Net-(R1-Pad2)*%
X166744700Y-97000000D03*
%TD*%
D23*
%TO.N,Net-(J3-Pin_19)*%
X149460000Y-111680000D02*
X148143300Y-112996700D01*
X160174800Y-122294600D02*
X161983000Y-120486400D01*
X148863000Y-133306700D02*
X156966500Y-133306700D01*
X156966500Y-133306700D02*
X160174800Y-130098400D01*
X148143300Y-112996700D02*
X148143300Y-132587000D01*
X148143300Y-132587000D02*
X148863000Y-133306700D01*
X160174800Y-130098400D02*
X160174800Y-122294600D01*
X161983000Y-120486400D02*
X161983000Y-118183500D01*
X161983000Y-118183500D02*
X160747200Y-116947700D01*
X160747200Y-116947700D02*
X160206700Y-116947700D01*
X160206700Y-116947700D02*
X157948300Y-114689300D01*
%TO.N,Net-(J3-Pin_21)*%
X147184650Y-111215350D02*
X147184650Y-132934650D01*
X147184650Y-132934650D02*
X148500000Y-134250000D01*
X148500000Y-134250000D02*
X157257200Y-134250000D01*
X157257200Y-134250000D02*
X161790200Y-129717000D01*
X161790200Y-129717000D02*
X161790200Y-129475400D01*
%TO.N,Net-(R1-Pad2)*%
X165500000Y-95800000D02*
X165500000Y-94500000D01*
X166744700Y-97000000D02*
X165544700Y-95800000D01*
X165544700Y-95800000D02*
X165500000Y-95800000D01*
%TO.N,Net-(J3-3v3_power)*%
X171960000Y-106620000D02*
X168150000Y-102810000D01*
X167417700Y-94417700D02*
X155436700Y-82436700D01*
X168150000Y-102810000D02*
X168150000Y-96453500D01*
X168150000Y-96453500D02*
X167417700Y-95721200D01*
X167417700Y-95721200D02*
X167417700Y-94417700D01*
X155436700Y-82436700D02*
X150763300Y-82436700D01*
X150763300Y-82436700D02*
X149460000Y-83740000D01*
D24*
%TO.N,Net-(A1-B1)*%
X163257700Y-63492300D02*
X165897700Y-63492300D01*
X157500000Y-67000000D02*
X159750000Y-67000000D01*
X159750000Y-67000000D02*
X163257700Y-63492300D01*
D23*
%TO.N,Net-(A1-~{RST})*%
X178420000Y-67200000D02*
X175880000Y-67200000D01*
%TO.N,Net-(A1-DIR)*%
X181151700Y-69548300D02*
X183500000Y-67200000D01*
X170302400Y-76030000D02*
X176784100Y-69548300D01*
X149505500Y-81347500D02*
X159175000Y-81347500D01*
X176784100Y-69548300D02*
X181151700Y-69548300D01*
X148136800Y-95116800D02*
X148136800Y-82716200D01*
X149460000Y-96440000D02*
X148136800Y-95116800D01*
X159175000Y-81347500D02*
X164492500Y-76030000D01*
X148136800Y-82716200D02*
X149505500Y-81347500D01*
X164492500Y-76030000D02*
X170302400Y-76030000D01*
D24*
%TO.N,Net-(A1-A2)*%
X159750000Y-62000000D02*
X172470000Y-62000000D01*
X157500000Y-62000000D02*
X159750000Y-62000000D01*
X172470000Y-62000000D02*
X175234600Y-59235400D01*
D23*
%TO.N,Net-(J3-Pin_19)*%
X161800000Y-106620000D02*
X163041200Y-105378800D01*
X163041200Y-105378800D02*
X165638800Y-105378800D01*
X165638800Y-105378800D02*
X166880000Y-106620000D01*
D24*
%TO.N,Net-(A1-A1)*%
X161985400Y-59235400D02*
X173035200Y-59235400D01*
X159750000Y-57000000D02*
X161985400Y-59235400D01*
X157500000Y-57000000D02*
X159750000Y-57000000D01*
D23*
%TO.N,Net-(A1-STEP)*%
X152527500Y-80123700D02*
X163902600Y-68748600D01*
X179411400Y-68748600D02*
X180960000Y-67200000D01*
X163902600Y-68748600D02*
X179411400Y-68748600D01*
%TO.N,Net-(A1-~{EN})*%
X147420000Y-79468600D02*
X147420000Y-96940000D01*
X147420000Y-96940000D02*
X149460000Y-98980000D01*
X163120000Y-68500000D02*
X158388600Y-68500000D01*
X165720000Y-67200000D02*
X164420000Y-67200000D01*
X164420000Y-67200000D02*
X163120000Y-68500000D01*
X158388600Y-68500000D02*
X147420000Y-79468600D01*
D24*
%TO.N,Net-(A2-B2)*%
X190750000Y-65750000D02*
X190750000Y-57500000D01*
X178500000Y-77300000D02*
X179200000Y-77300000D01*
X190750000Y-57500000D02*
X193000000Y-57500000D01*
X179200000Y-77300000D02*
X190750000Y-65750000D01*
%TO.N,Net-(A2-A1)*%
X193000000Y-72500000D02*
X188982500Y-72500000D01*
X188982500Y-72500000D02*
X179102500Y-82380000D01*
X179102500Y-82380000D02*
X178500000Y-82380000D01*
%TO.N,Net-(A2-B1)*%
X195250000Y-68101300D02*
X194226300Y-69125000D01*
X195250000Y-62500000D02*
X195250000Y-68101300D01*
X189875000Y-69125000D02*
X179160000Y-79840000D01*
X193000000Y-62500000D02*
X195250000Y-62500000D01*
X179160000Y-79840000D02*
X178500000Y-79840000D01*
X194226300Y-69125000D02*
X189875000Y-69125000D01*
D23*
%TO.N,Net-(J3-Pin_24)*%
X152000000Y-111680000D02*
X154200000Y-111680000D01*
X154200000Y-111680000D02*
X159260000Y-106620000D01*
%TO.N,Net-(J3-Pin_21)*%
X163893700Y-120063200D02*
X163893700Y-117659400D01*
X149460000Y-109140000D02*
X147441600Y-111158400D01*
X161790200Y-122166700D02*
X163893700Y-120063200D01*
X161790200Y-129475400D02*
X161790200Y-122166700D01*
%TO.N,Net-(J3-3v3_power)*%
X174500000Y-106620000D02*
X171960000Y-106620000D01*
%TO.N,Net-(R1-Pad2)*%
X168840000Y-94500000D02*
X170000000Y-94500000D01*
X170000000Y-94500000D02*
X174500000Y-99000000D01*
%TO.N,Net-(J3-Pin_40)*%
X156350000Y-129000000D02*
X158350000Y-129000000D01*
X153350000Y-132000000D02*
X156350000Y-129000000D01*
X152000000Y-132000000D02*
X153350000Y-132000000D01*
D24*
%TO.N,Net-(A1-VMOT)*%
X165720000Y-56851700D02*
X176541500Y-56851700D01*
D25*
X176860500Y-108067200D02*
X176860500Y-96103300D01*
D24*
X176541500Y-56851700D02*
X185872900Y-66183100D01*
D25*
X176117800Y-73818798D02*
X177716598Y-72220000D01*
D26*
X171850000Y-125948300D02*
X171850000Y-129000000D01*
D24*
X185872900Y-66183100D02*
X185872900Y-68158100D01*
D25*
X166679800Y-117778100D02*
X163051700Y-114150000D01*
X163051700Y-114150000D02*
X160000000Y-114150000D01*
D24*
X181811000Y-72220000D02*
X178500000Y-72220000D01*
D25*
X176860500Y-96103300D02*
X176117800Y-95360600D01*
D27*
X178310200Y-72409800D02*
X178500000Y-72220000D01*
D26*
X167149600Y-117778100D02*
X167149600Y-121247900D01*
D24*
X165720000Y-54500000D02*
X165720000Y-56851700D01*
D26*
X167149600Y-121247900D02*
X171850000Y-125948300D01*
D25*
X177716598Y-72220000D02*
X178500000Y-72220000D01*
X176117800Y-95360600D02*
X176117800Y-73818798D01*
D24*
X185872900Y-68158100D02*
X181811000Y-72220000D01*
D25*
X167149600Y-117778100D02*
X166679800Y-117778100D01*
%TD*%
%TA.AperFunction,Conductor*%
%TO.N,GND*%
G36*
X205942539Y-53020185D02*
G01*
X205988294Y-53072989D01*
X205999500Y-53124500D01*
X205999500Y-137875500D01*
X205979815Y-137942539D01*
X205927011Y-137988294D01*
X205875500Y-137999500D01*
X147124000Y-137999500D01*
X147056961Y-137979815D01*
X147011206Y-137927011D01*
X147000000Y-137875500D01*
X147000000Y-134110730D01*
X147019685Y-134043691D01*
X147072489Y-133997936D01*
X147141647Y-133987992D01*
X147205203Y-134017017D01*
X147211681Y-134023049D01*
X148021586Y-134832954D01*
X148039539Y-134844949D01*
X148095270Y-134882186D01*
X148144505Y-134915084D01*
X148144506Y-134915084D01*
X148144507Y-134915085D01*
X148144509Y-134915086D01*
X148276833Y-134969896D01*
X148281087Y-134971658D01*
X148281091Y-134971658D01*
X148281092Y-134971659D01*
X148426079Y-135000500D01*
X148426082Y-135000500D01*
X148426083Y-135000500D01*
X148573918Y-135000500D01*
X148813505Y-135000500D01*
X148880544Y-135020185D01*
X148926299Y-135072989D01*
X148936243Y-135142147D01*
X148913823Y-135197385D01*
X148844951Y-135292179D01*
X148748444Y-135481585D01*
X148682753Y-135683760D01*
X148649500Y-135893713D01*
X148649500Y-136106286D01*
X148682753Y-136316239D01*
X148748444Y-136518414D01*
X148844951Y-136707820D01*
X148969890Y-136879786D01*
X149120213Y-137030109D01*
X149292179Y-137155048D01*
X149292181Y-137155049D01*
X149292184Y-137155051D01*
X149481588Y-137251557D01*
X149683757Y-137317246D01*
X149893713Y-137350500D01*
X149893714Y-137350500D01*
X150106286Y-137350500D01*
X150106287Y-137350500D01*
X150316243Y-137317246D01*
X150518412Y-137251557D01*
X150707816Y-137155051D01*
X150729789Y-137139086D01*
X150879786Y-137030109D01*
X150879788Y-137030106D01*
X150879792Y-137030104D01*
X151030104Y-136879792D01*
X151030106Y-136879788D01*
X151030109Y-136879786D01*
X151155048Y-136707820D01*
X151155047Y-136707820D01*
X151155051Y-136707816D01*
X151251557Y-136518412D01*
X151317246Y-136316243D01*
X151350500Y-136106287D01*
X151350500Y-136106286D01*
X199649500Y-136106286D01*
X199682753Y-136316239D01*
X199748444Y-136518414D01*
X199844951Y-136707820D01*
X199969890Y-136879786D01*
X200120213Y-137030109D01*
X200292179Y-137155048D01*
X200292181Y-137155049D01*
X200292184Y-137155051D01*
X200481588Y-137251557D01*
X200683757Y-137317246D01*
X200893713Y-137350500D01*
X200893714Y-137350500D01*
X201106286Y-137350500D01*
X201106287Y-137350500D01*
X201316243Y-137317246D01*
X201518412Y-137251557D01*
X201707816Y-137155051D01*
X201729789Y-137139086D01*
X201879786Y-137030109D01*
X201879788Y-137030106D01*
X201879792Y-137030104D01*
X202030104Y-136879792D01*
X202030106Y-136879788D01*
X202030109Y-136879786D01*
X202155048Y-136707820D01*
X202155047Y-136707820D01*
X202155051Y-136707816D01*
X202251557Y-136518412D01*
X202317246Y-136316243D01*
X202350500Y-136106287D01*
X202350500Y-135893713D01*
X202317246Y-135683757D01*
X202251557Y-135481588D01*
X202155051Y-135292184D01*
X202155049Y-135292181D01*
X202155048Y-135292179D01*
X202030109Y-135120213D01*
X201879786Y-134969890D01*
X201707820Y-134844951D01*
X201518414Y-134748444D01*
X201518413Y-134748443D01*
X201518412Y-134748443D01*
X201316243Y-134682754D01*
X201316241Y-134682753D01*
X201316240Y-134682753D01*
X201154957Y-134657208D01*
X201106287Y-134649500D01*
X200893713Y-134649500D01*
X200845042Y-134657208D01*
X200683760Y-134682753D01*
X200481585Y-134748444D01*
X200292179Y-134844951D01*
X200120213Y-134969890D01*
X199969890Y-135120213D01*
X199844951Y-135292179D01*
X199748444Y-135481585D01*
X199682753Y-135683760D01*
X199649500Y-135893713D01*
X199649500Y-136106286D01*
X151350500Y-136106286D01*
X151350500Y-135893713D01*
X151317246Y-135683757D01*
X151251557Y-135481588D01*
X151155051Y-135292184D01*
X151155049Y-135292181D01*
X151155048Y-135292179D01*
X151086177Y-135197385D01*
X151062697Y-135131578D01*
X151078523Y-135063525D01*
X151128629Y-135014830D01*
X151186495Y-135000500D01*
X157331120Y-135000500D01*
X157428662Y-134981096D01*
X157476113Y-134971658D01*
X157612695Y-134915084D01*
X157661929Y-134882186D01*
X157661934Y-134882183D01*
X157717660Y-134844949D01*
X157735616Y-134832952D01*
X162128449Y-130440117D01*
X162189770Y-130406634D01*
X162259462Y-130411618D01*
X162315395Y-130453490D01*
X162316445Y-130454914D01*
X162383988Y-130547876D01*
X162396172Y-130564646D01*
X162535354Y-130703828D01*
X162694595Y-130819524D01*
X162718247Y-130831575D01*
X162869970Y-130908882D01*
X162869972Y-130908882D01*
X162869975Y-130908884D01*
X162970317Y-130941487D01*
X163057173Y-130969709D01*
X163251578Y-131000500D01*
X163251583Y-131000500D01*
X163448422Y-131000500D01*
X163642826Y-130969709D01*
X163722574Y-130943797D01*
X163830025Y-130908884D01*
X164005405Y-130819524D01*
X164164646Y-130703828D01*
X164303828Y-130564646D01*
X164419524Y-130405405D01*
X164508884Y-130230025D01*
X164569709Y-130042826D01*
X164587257Y-129932032D01*
X164600500Y-129848422D01*
X164600500Y-128151577D01*
X164569709Y-127957173D01*
X164515846Y-127791402D01*
X164508884Y-127769975D01*
X164508882Y-127769972D01*
X164508882Y-127769970D01*
X164461743Y-127677455D01*
X164419524Y-127594595D01*
X164303828Y-127435354D01*
X164164646Y-127296172D01*
X164005405Y-127180476D01*
X163956216Y-127155413D01*
X163830029Y-127091117D01*
X163642826Y-127030290D01*
X163448422Y-126999500D01*
X163448417Y-126999500D01*
X163251583Y-126999500D01*
X163251578Y-126999500D01*
X163057173Y-127030290D01*
X162869967Y-127091118D01*
X162720994Y-127167024D01*
X162652325Y-127179920D01*
X162587585Y-127153643D01*
X162547328Y-127096537D01*
X162540700Y-127056539D01*
X162540700Y-122528929D01*
X162560385Y-122461890D01*
X162577019Y-122441248D01*
X164476648Y-120541619D01*
X164476651Y-120541616D01*
X164558784Y-120418695D01*
X164569180Y-120393598D01*
X164589993Y-120343350D01*
X164615358Y-120282113D01*
X164636559Y-120175532D01*
X164644200Y-120137120D01*
X164644200Y-118163889D01*
X164663885Y-118096850D01*
X164716689Y-118051095D01*
X164785847Y-118041151D01*
X164849403Y-118070176D01*
X164855881Y-118076208D01*
X165362781Y-118583108D01*
X165396266Y-118644431D01*
X165399100Y-118670789D01*
X165399100Y-121362641D01*
X165424046Y-121552115D01*
X165429052Y-121590138D01*
X165432925Y-121604592D01*
X165488442Y-121811787D01*
X165576250Y-122023776D01*
X165576257Y-122023791D01*
X165670972Y-122187842D01*
X165690989Y-122222512D01*
X165704879Y-122240614D01*
X165704881Y-122240617D01*
X165704882Y-122240617D01*
X165830678Y-122404559D01*
X165830684Y-122404566D01*
X170063181Y-126637062D01*
X170096666Y-126698385D01*
X170099500Y-126724743D01*
X170099500Y-129114741D01*
X170117308Y-129250000D01*
X170129452Y-129342238D01*
X170146572Y-129406132D01*
X170188842Y-129563887D01*
X170276650Y-129775876D01*
X170276657Y-129775890D01*
X170391392Y-129974617D01*
X170531081Y-130156661D01*
X170531088Y-130156669D01*
X170563180Y-130188760D01*
X170596666Y-130250082D01*
X170599500Y-130276442D01*
X170599500Y-130547869D01*
X170599501Y-130547876D01*
X170605908Y-130607483D01*
X170656202Y-130742328D01*
X170656206Y-130742335D01*
X170742452Y-130857544D01*
X170742455Y-130857547D01*
X170857664Y-130943793D01*
X170857671Y-130943797D01*
X170992517Y-130994091D01*
X170992516Y-130994091D01*
X170999444Y-130994835D01*
X171052127Y-131000500D01*
X172647872Y-131000499D01*
X172707483Y-130994091D01*
X172842331Y-130943796D01*
X172957546Y-130857546D01*
X173043796Y-130742331D01*
X173094091Y-130607483D01*
X173100500Y-130547873D01*
X173100499Y-130276441D01*
X173120183Y-130209403D01*
X173136816Y-130188762D01*
X173168919Y-130156661D01*
X173308611Y-129974612D01*
X173381490Y-129848382D01*
X175600000Y-129848382D01*
X175630778Y-130042705D01*
X175691581Y-130229835D01*
X175780904Y-130405143D01*
X175896555Y-130564321D01*
X176035678Y-130703444D01*
X176194856Y-130819095D01*
X176370162Y-130908418D01*
X176557283Y-130969218D01*
X176600000Y-130975984D01*
X176600000Y-129519615D01*
X176628058Y-129535815D01*
X176774300Y-129575000D01*
X176925700Y-129575000D01*
X177071942Y-129535815D01*
X177100000Y-129519615D01*
X177100000Y-130975983D01*
X177142716Y-130969218D01*
X177329837Y-130908418D01*
X177505143Y-130819095D01*
X177664321Y-130703444D01*
X177803444Y-130564321D01*
X177919095Y-130405143D01*
X178008418Y-130229835D01*
X178069221Y-130042705D01*
X178100000Y-129848382D01*
X178100000Y-129250000D01*
X177369616Y-129250000D01*
X177385815Y-129221942D01*
X177425000Y-129075700D01*
X177425000Y-128924300D01*
X177385815Y-128778058D01*
X177369616Y-128750000D01*
X178100000Y-128750000D01*
X178100000Y-128151617D01*
X178069221Y-127957294D01*
X178008418Y-127770164D01*
X177919095Y-127594856D01*
X177803444Y-127435678D01*
X177664321Y-127296555D01*
X177505143Y-127180904D01*
X177329835Y-127091581D01*
X177142705Y-127030778D01*
X177100000Y-127024014D01*
X177100000Y-128480384D01*
X177071942Y-128464185D01*
X176925700Y-128425000D01*
X176774300Y-128425000D01*
X176628058Y-128464185D01*
X176600000Y-128480384D01*
X176600000Y-127024014D01*
X176599999Y-127024014D01*
X176557294Y-127030778D01*
X176370164Y-127091581D01*
X176194856Y-127180904D01*
X176035678Y-127296555D01*
X175896555Y-127435678D01*
X175780904Y-127594856D01*
X175691581Y-127770164D01*
X175630778Y-127957294D01*
X175600000Y-128151617D01*
X175600000Y-128750000D01*
X176330384Y-128750000D01*
X176314185Y-128778058D01*
X176275000Y-128924300D01*
X176275000Y-129075700D01*
X176314185Y-129221942D01*
X176330384Y-129250000D01*
X175600000Y-129250000D01*
X175600000Y-129848382D01*
X173381490Y-129848382D01*
X173423344Y-129775888D01*
X173511158Y-129563887D01*
X173570548Y-129342238D01*
X173600500Y-129114734D01*
X173600500Y-125833566D01*
X173570548Y-125606062D01*
X173511158Y-125384413D01*
X173423344Y-125172412D01*
X173350675Y-125046546D01*
X173308611Y-124973688D01*
X173208841Y-124843664D01*
X173208837Y-124843661D01*
X173208832Y-124843655D01*
X173168919Y-124791638D01*
X173168918Y-124791637D01*
X173168914Y-124791632D01*
X168936419Y-120559137D01*
X168902934Y-120497814D01*
X168900100Y-120471456D01*
X168900100Y-117663372D01*
X168900099Y-117663358D01*
X168893441Y-117612785D01*
X168870148Y-117435862D01*
X168810758Y-117214213D01*
X168722944Y-117002212D01*
X168608211Y-116803488D01*
X168608208Y-116803485D01*
X168608207Y-116803482D01*
X168468518Y-116621438D01*
X168468511Y-116621430D01*
X168306270Y-116459189D01*
X168306261Y-116459181D01*
X168124217Y-116319492D01*
X168084123Y-116296344D01*
X167925488Y-116204756D01*
X167925476Y-116204750D01*
X167713487Y-116116942D01*
X167491838Y-116057552D01*
X167453815Y-116052546D01*
X167264341Y-116027600D01*
X167264334Y-116027600D01*
X167102689Y-116027600D01*
X167035650Y-116007915D01*
X167015008Y-115991281D01*
X164029211Y-113005484D01*
X164009435Y-112991116D01*
X163838134Y-112866657D01*
X163802352Y-112848425D01*
X163627696Y-112759433D01*
X163403068Y-112686446D01*
X163169797Y-112649500D01*
X163169792Y-112649500D01*
X159881908Y-112649500D01*
X159881903Y-112649500D01*
X159648631Y-112686446D01*
X159424003Y-112759433D01*
X159213564Y-112866658D01*
X159197122Y-112878604D01*
X159143638Y-112900757D01*
X158957172Y-112930291D01*
X158769970Y-112991117D01*
X158594594Y-113080476D01*
X158503741Y-113146485D01*
X158435354Y-113196172D01*
X158435352Y-113196174D01*
X158435351Y-113196174D01*
X158296174Y-113335351D01*
X158296174Y-113335352D01*
X158296172Y-113335354D01*
X158286549Y-113348599D01*
X158180476Y-113494594D01*
X158091117Y-113669970D01*
X158049129Y-113799196D01*
X158009691Y-113856871D01*
X157945332Y-113884069D01*
X157945081Y-113884097D01*
X157769050Y-113903930D01*
X157769045Y-113903931D01*
X157598776Y-113963511D01*
X157446037Y-114059484D01*
X157318484Y-114187037D01*
X157222511Y-114339776D01*
X157162931Y-114510045D01*
X157162930Y-114510050D01*
X157142735Y-114689296D01*
X157142735Y-114689303D01*
X157162930Y-114868549D01*
X157162931Y-114868554D01*
X157222511Y-115038823D01*
X157255549Y-115091402D01*
X157318484Y-115191562D01*
X157446038Y-115319116D01*
X157598778Y-115415089D01*
X157598780Y-115415089D01*
X157598784Y-115415092D01*
X157605056Y-115418113D01*
X157604169Y-115419953D01*
X157640239Y-115442607D01*
X159728286Y-117530654D01*
X159757758Y-117550345D01*
X159801970Y-117579886D01*
X159851205Y-117612784D01*
X159851206Y-117612784D01*
X159851207Y-117612785D01*
X159851209Y-117612786D01*
X159973321Y-117663366D01*
X159987787Y-117669358D01*
X159987791Y-117669358D01*
X159987792Y-117669359D01*
X160132779Y-117698200D01*
X160132782Y-117698200D01*
X160132783Y-117698200D01*
X160280617Y-117698200D01*
X160384970Y-117698200D01*
X160452009Y-117717885D01*
X160472651Y-117734519D01*
X160713681Y-117975549D01*
X160747166Y-118036871D01*
X160750000Y-118063229D01*
X160750000Y-120400000D01*
X160767180Y-120417180D01*
X160775709Y-120419685D01*
X160821464Y-120472489D01*
X160831408Y-120541647D01*
X160802383Y-120605203D01*
X160796351Y-120611681D01*
X159591850Y-121816180D01*
X159591844Y-121816188D01*
X159542612Y-121889868D01*
X159542613Y-121889869D01*
X159509721Y-121939096D01*
X159509714Y-121939108D01*
X159453142Y-122075686D01*
X159453140Y-122075692D01*
X159424300Y-122220679D01*
X159424300Y-126908183D01*
X159404615Y-126975222D01*
X159351811Y-127020977D01*
X159282653Y-127030921D01*
X159256967Y-127024365D01*
X159207482Y-127005908D01*
X159207483Y-127005908D01*
X159147883Y-126999501D01*
X159147881Y-126999500D01*
X159147873Y-126999500D01*
X159147864Y-126999500D01*
X157552129Y-126999500D01*
X157552123Y-126999501D01*
X157492516Y-127005908D01*
X157357671Y-127056202D01*
X157357664Y-127056206D01*
X157242455Y-127142452D01*
X157242452Y-127142455D01*
X157156206Y-127257664D01*
X157156202Y-127257671D01*
X157105908Y-127392517D01*
X157099501Y-127452116D01*
X157099500Y-127452135D01*
X157099500Y-128125500D01*
X157079815Y-128192539D01*
X157027011Y-128238294D01*
X156975500Y-128249500D01*
X156276082Y-128249500D01*
X156248116Y-128255063D01*
X156248115Y-128255063D01*
X156131094Y-128278339D01*
X156131087Y-128278341D01*
X156080347Y-128299359D01*
X155994506Y-128334915D01*
X155912372Y-128389795D01*
X155871585Y-128417047D01*
X155871581Y-128417050D01*
X153186944Y-131101686D01*
X153125621Y-131135171D01*
X153055929Y-131130187D01*
X153011582Y-131101686D01*
X152871402Y-130961506D01*
X152871396Y-130961501D01*
X152685842Y-130831575D01*
X152642217Y-130776998D01*
X152635023Y-130707500D01*
X152666546Y-130645145D01*
X152685842Y-130628425D01*
X152776926Y-130564647D01*
X152871401Y-130498495D01*
X153038495Y-130331401D01*
X153174035Y-130137830D01*
X153273903Y-129923663D01*
X153335063Y-129695408D01*
X153355659Y-129460000D01*
X153335063Y-129224592D01*
X153273903Y-128996337D01*
X153174035Y-128782171D01*
X153168425Y-128774158D01*
X153038494Y-128588597D01*
X152871402Y-128421506D01*
X152871396Y-128421501D01*
X152685842Y-128291575D01*
X152642217Y-128236998D01*
X152635023Y-128167500D01*
X152666546Y-128105145D01*
X152685842Y-128088425D01*
X152708026Y-128072891D01*
X152871401Y-127958495D01*
X153038495Y-127791401D01*
X153174035Y-127597830D01*
X153273903Y-127383663D01*
X153335063Y-127155408D01*
X153355659Y-126920000D01*
X153335063Y-126684592D01*
X153273903Y-126456337D01*
X153174035Y-126242171D01*
X153168425Y-126234158D01*
X153038494Y-126048597D01*
X152871402Y-125881506D01*
X152871396Y-125881501D01*
X152685842Y-125751575D01*
X152642217Y-125696998D01*
X152635023Y-125627500D01*
X152666546Y-125565145D01*
X152685842Y-125548425D01*
X152708026Y-125532891D01*
X152871401Y-125418495D01*
X153038495Y-125251401D01*
X153174035Y-125057830D01*
X153273903Y-124843663D01*
X153335063Y-124615408D01*
X153355659Y-124380000D01*
X153335063Y-124144592D01*
X153273903Y-123916337D01*
X153174035Y-123702171D01*
X153168425Y-123694158D01*
X153038494Y-123508597D01*
X152871402Y-123341506D01*
X152871396Y-123341501D01*
X152685842Y-123211575D01*
X152642217Y-123156998D01*
X152635023Y-123087500D01*
X152666546Y-123025145D01*
X152685842Y-123008425D01*
X152708026Y-122992891D01*
X152871401Y-122878495D01*
X153038495Y-122711401D01*
X153174035Y-122517830D01*
X153273903Y-122303663D01*
X153335063Y-122075408D01*
X153355659Y-121840000D01*
X153335063Y-121604592D01*
X153273903Y-121376337D01*
X153174035Y-121162171D01*
X153168425Y-121154158D01*
X153038494Y-120968597D01*
X152871402Y-120801506D01*
X152871396Y-120801501D01*
X152685842Y-120671575D01*
X152642217Y-120616998D01*
X152635023Y-120547500D01*
X152666546Y-120485145D01*
X152685842Y-120468425D01*
X152756855Y-120418701D01*
X152871401Y-120338495D01*
X153038495Y-120171401D01*
X153174035Y-119977830D01*
X153210328Y-119900000D01*
X158000000Y-119900000D01*
X158000000Y-119947844D01*
X158006401Y-120007372D01*
X158006403Y-120007379D01*
X158056645Y-120142086D01*
X158056649Y-120142093D01*
X158142809Y-120257187D01*
X158142812Y-120257190D01*
X158257906Y-120343350D01*
X158257913Y-120343354D01*
X158392620Y-120393596D01*
X158392627Y-120393598D01*
X158452155Y-120399999D01*
X158452172Y-120400000D01*
X159250000Y-120400000D01*
X159250000Y-119900000D01*
X158000000Y-119900000D01*
X153210328Y-119900000D01*
X153273903Y-119763663D01*
X153335063Y-119535408D01*
X153355659Y-119300000D01*
X153349158Y-119225700D01*
X159425000Y-119225700D01*
X159464185Y-119371942D01*
X159539885Y-119503058D01*
X159646942Y-119610115D01*
X159778058Y-119685815D01*
X159924300Y-119725000D01*
X160075700Y-119725000D01*
X160221942Y-119685815D01*
X160353058Y-119610115D01*
X160460115Y-119503058D01*
X160535815Y-119371942D01*
X160575000Y-119225700D01*
X160575000Y-119074300D01*
X160535815Y-118928058D01*
X160460115Y-118796942D01*
X160353058Y-118689885D01*
X160221942Y-118614185D01*
X160075700Y-118575000D01*
X159924300Y-118575000D01*
X159778058Y-118614185D01*
X159646942Y-118689885D01*
X159539885Y-118796942D01*
X159464185Y-118928058D01*
X159425000Y-119074300D01*
X159425000Y-119225700D01*
X153349158Y-119225700D01*
X153335063Y-119064592D01*
X153273903Y-118836337D01*
X153174035Y-118622171D01*
X153168444Y-118614185D01*
X153038494Y-118428597D01*
X153009897Y-118400000D01*
X158000000Y-118400000D01*
X159250000Y-118400000D01*
X159250000Y-117900000D01*
X158452155Y-117900000D01*
X158392627Y-117906401D01*
X158392620Y-117906403D01*
X158257913Y-117956645D01*
X158257906Y-117956649D01*
X158142812Y-118042809D01*
X158142809Y-118042812D01*
X158056649Y-118157906D01*
X158056645Y-118157913D01*
X158006403Y-118292620D01*
X158006401Y-118292627D01*
X158000000Y-118352155D01*
X158000000Y-118400000D01*
X153009897Y-118400000D01*
X152871402Y-118261506D01*
X152871396Y-118261501D01*
X152685842Y-118131575D01*
X152642217Y-118076998D01*
X152635023Y-118007500D01*
X152666546Y-117945145D01*
X152685842Y-117928425D01*
X152749787Y-117883650D01*
X152871401Y-117798495D01*
X153038495Y-117631401D01*
X153174035Y-117437830D01*
X153273903Y-117223663D01*
X153335063Y-116995408D01*
X153355659Y-116760000D01*
X153335063Y-116524592D01*
X153280107Y-116319492D01*
X153273905Y-116296344D01*
X153273904Y-116296343D01*
X153273903Y-116296337D01*
X153174035Y-116082171D01*
X153168425Y-116074158D01*
X153038494Y-115888597D01*
X152871402Y-115721506D01*
X152871396Y-115721501D01*
X152685842Y-115591575D01*
X152642217Y-115536998D01*
X152635023Y-115467500D01*
X152666546Y-115405145D01*
X152685842Y-115388425D01*
X152784825Y-115319116D01*
X152871401Y-115258495D01*
X153038495Y-115091401D01*
X153174035Y-114897830D01*
X153273903Y-114683663D01*
X153335063Y-114455408D01*
X153355659Y-114220000D01*
X153335063Y-113984592D01*
X153273903Y-113756337D01*
X153174035Y-113542171D01*
X153168425Y-113534158D01*
X153038494Y-113348597D01*
X152871402Y-113181506D01*
X152871396Y-113181501D01*
X152685842Y-113051575D01*
X152642217Y-112996998D01*
X152635023Y-112927500D01*
X152666546Y-112865145D01*
X152685842Y-112848425D01*
X152708026Y-112832891D01*
X152871401Y-112718495D01*
X153038495Y-112551401D01*
X153086127Y-112483376D01*
X153140704Y-112439751D01*
X153187701Y-112430500D01*
X154273920Y-112430500D01*
X154371462Y-112411096D01*
X154418913Y-112401658D01*
X154555495Y-112345084D01*
X154604729Y-112312186D01*
X154678416Y-112262952D01*
X159029727Y-107911638D01*
X159091048Y-107878155D01*
X159128211Y-107875793D01*
X159237712Y-107885373D01*
X159259999Y-107887323D01*
X159260000Y-107887323D01*
X159260002Y-107887323D01*
X159315017Y-107882509D01*
X159480068Y-107868070D01*
X159693450Y-107810894D01*
X159893662Y-107717534D01*
X160074620Y-107590826D01*
X160230826Y-107434620D01*
X160357534Y-107253662D01*
X160417618Y-107124811D01*
X160463790Y-107072371D01*
X160530983Y-107053219D01*
X160597865Y-107073435D01*
X160642382Y-107124811D01*
X160702464Y-107253658D01*
X160702468Y-107253666D01*
X160829170Y-107434615D01*
X160829175Y-107434621D01*
X160985378Y-107590824D01*
X160985384Y-107590829D01*
X161166333Y-107717531D01*
X161166335Y-107717532D01*
X161166338Y-107717534D01*
X161366550Y-107810894D01*
X161579932Y-107868070D01*
X161737123Y-107881822D01*
X161799998Y-107887323D01*
X161800000Y-107887323D01*
X161800002Y-107887323D01*
X161855017Y-107882509D01*
X162020068Y-107868070D01*
X162233450Y-107810894D01*
X162433662Y-107717534D01*
X162614620Y-107590826D01*
X162770826Y-107434620D01*
X162897534Y-107253662D01*
X162957618Y-107124811D01*
X163003790Y-107072371D01*
X163070983Y-107053219D01*
X163137865Y-107073435D01*
X163182382Y-107124811D01*
X163242464Y-107253658D01*
X163242468Y-107253666D01*
X163369170Y-107434615D01*
X163369175Y-107434621D01*
X163525378Y-107590824D01*
X163525384Y-107590829D01*
X163706333Y-107717531D01*
X163706335Y-107717532D01*
X163706338Y-107717534D01*
X163906550Y-107810894D01*
X164119932Y-107868070D01*
X164277123Y-107881822D01*
X164339998Y-107887323D01*
X164340000Y-107887323D01*
X164340002Y-107887323D01*
X164395017Y-107882509D01*
X164560068Y-107868070D01*
X164773450Y-107810894D01*
X164973662Y-107717534D01*
X165154620Y-107590826D01*
X165310826Y-107434620D01*
X165437534Y-107253662D01*
X165497618Y-107124811D01*
X165543790Y-107072371D01*
X165610983Y-107053219D01*
X165677865Y-107073435D01*
X165722382Y-107124811D01*
X165782464Y-107253658D01*
X165782468Y-107253666D01*
X165909170Y-107434615D01*
X165909175Y-107434621D01*
X166065378Y-107590824D01*
X166065384Y-107590829D01*
X166246333Y-107717531D01*
X166246335Y-107717532D01*
X166246338Y-107717534D01*
X166446550Y-107810894D01*
X166659932Y-107868070D01*
X166817123Y-107881822D01*
X166879998Y-107887323D01*
X166880000Y-107887323D01*
X166880002Y-107887323D01*
X166935017Y-107882509D01*
X167059717Y-107871600D01*
X169246030Y-107871600D01*
X169419999Y-107886821D01*
X169420001Y-107886821D01*
X169593969Y-107871600D01*
X169593969Y-107871599D01*
X169420001Y-107697631D01*
X169246030Y-107871600D01*
X167059717Y-107871600D01*
X167100068Y-107868070D01*
X167313450Y-107810894D01*
X167513662Y-107717534D01*
X167694620Y-107590826D01*
X167850826Y-107434620D01*
X167977534Y-107253662D01*
X168070894Y-107053450D01*
X168121583Y-106864276D01*
X168153676Y-106808690D01*
X168288863Y-106673504D01*
X169013600Y-106673504D01*
X169041295Y-106776865D01*
X169094799Y-106869536D01*
X169170464Y-106945201D01*
X169263135Y-106998705D01*
X169366496Y-107026400D01*
X169473504Y-107026400D01*
X169576865Y-106998705D01*
X169669536Y-106945201D01*
X169745201Y-106869536D01*
X169798705Y-106776865D01*
X169826400Y-106673504D01*
X169826400Y-106566496D01*
X169798705Y-106463135D01*
X169745201Y-106370464D01*
X169669536Y-106294799D01*
X169576865Y-106241295D01*
X169473504Y-106213600D01*
X169366496Y-106213600D01*
X169263135Y-106241295D01*
X169170464Y-106294799D01*
X169094799Y-106370464D01*
X169041295Y-106463135D01*
X169013600Y-106566496D01*
X169013600Y-106673504D01*
X168288863Y-106673504D01*
X168342368Y-106619999D01*
X168153676Y-106431307D01*
X168121582Y-106375720D01*
X168118601Y-106364596D01*
X168070894Y-106186550D01*
X167977534Y-105986339D01*
X167895723Y-105869500D01*
X167850827Y-105805381D01*
X167774043Y-105728597D01*
X167694620Y-105649174D01*
X167694616Y-105649171D01*
X167694615Y-105649170D01*
X167513666Y-105522468D01*
X167513662Y-105522466D01*
X167513660Y-105522465D01*
X167313450Y-105429106D01*
X167313447Y-105429105D01*
X167313445Y-105429104D01*
X167100070Y-105371930D01*
X167100062Y-105371929D01*
X166880002Y-105352677D01*
X166879997Y-105352677D01*
X166748213Y-105364205D01*
X166679713Y-105350438D01*
X166649726Y-105328358D01*
X166117221Y-104795852D01*
X166117220Y-104795851D01*
X166030384Y-104737830D01*
X166030383Y-104737829D01*
X165994300Y-104713719D01*
X165994288Y-104713712D01*
X165857717Y-104657143D01*
X165857707Y-104657140D01*
X165712720Y-104628300D01*
X165712718Y-104628300D01*
X162967282Y-104628300D01*
X162967280Y-104628300D01*
X162822292Y-104657140D01*
X162822282Y-104657143D01*
X162685711Y-104713712D01*
X162685699Y-104713719D01*
X162649617Y-104737829D01*
X162649616Y-104737830D01*
X162562782Y-104795849D01*
X162562781Y-104795850D01*
X162030272Y-105328358D01*
X161968949Y-105361843D01*
X161931785Y-105364205D01*
X161800003Y-105352677D01*
X161799998Y-105352677D01*
X161579937Y-105371929D01*
X161579929Y-105371930D01*
X161366554Y-105429104D01*
X161366548Y-105429107D01*
X161166340Y-105522465D01*
X161166338Y-105522466D01*
X160985377Y-105649175D01*
X160829175Y-105805377D01*
X160702466Y-105986338D01*
X160702465Y-105986340D01*
X160642382Y-106115189D01*
X160596209Y-106167628D01*
X160529016Y-106186780D01*
X160462135Y-106166564D01*
X160417618Y-106115189D01*
X160357534Y-105986340D01*
X160357533Y-105986338D01*
X160230827Y-105805381D01*
X160154043Y-105728597D01*
X160074620Y-105649174D01*
X160074616Y-105649171D01*
X160074615Y-105649170D01*
X159893666Y-105522468D01*
X159893662Y-105522466D01*
X159893660Y-105522465D01*
X159693450Y-105429106D01*
X159693447Y-105429105D01*
X159693445Y-105429104D01*
X159480070Y-105371930D01*
X159480062Y-105371929D01*
X159260002Y-105352677D01*
X159259998Y-105352677D01*
X159039937Y-105371929D01*
X159039929Y-105371930D01*
X158826554Y-105429104D01*
X158826548Y-105429107D01*
X158626340Y-105522465D01*
X158626338Y-105522466D01*
X158445377Y-105649175D01*
X158289175Y-105805377D01*
X158207575Y-105921916D01*
X158152998Y-105965541D01*
X158083500Y-105972735D01*
X158021145Y-105941212D01*
X157985731Y-105880983D01*
X157982000Y-105850793D01*
X157982000Y-105810172D01*
X157981999Y-105810155D01*
X157975598Y-105750627D01*
X157975596Y-105750620D01*
X157925354Y-105615913D01*
X157925350Y-105615906D01*
X157839190Y-105500812D01*
X157839187Y-105500809D01*
X157724093Y-105414649D01*
X157724086Y-105414645D01*
X157589379Y-105364403D01*
X157589372Y-105364401D01*
X157529844Y-105358000D01*
X157482000Y-105358000D01*
X157482000Y-107285270D01*
X157462315Y-107352309D01*
X157445681Y-107372951D01*
X153925451Y-110893181D01*
X153864128Y-110926666D01*
X153837770Y-110929500D01*
X153187701Y-110929500D01*
X153120662Y-110909815D01*
X153086126Y-110876623D01*
X153038494Y-110808597D01*
X152871402Y-110641506D01*
X152871396Y-110641501D01*
X152685842Y-110511575D01*
X152642217Y-110456998D01*
X152635023Y-110387500D01*
X152666546Y-110325145D01*
X152685842Y-110308425D01*
X152784605Y-110239270D01*
X152871401Y-110178495D01*
X153038495Y-110011401D01*
X153174035Y-109817830D01*
X153273903Y-109603663D01*
X153335063Y-109375408D01*
X153355659Y-109140000D01*
X153335063Y-108904592D01*
X153283726Y-108712998D01*
X153273905Y-108676344D01*
X153273904Y-108676343D01*
X153273903Y-108676337D01*
X153174035Y-108462171D01*
X153168425Y-108454158D01*
X153038494Y-108268597D01*
X152871402Y-108101506D01*
X152871396Y-108101501D01*
X152685842Y-107971575D01*
X152642217Y-107916998D01*
X152635023Y-107847500D01*
X152666546Y-107785145D01*
X152685842Y-107768425D01*
X152727598Y-107739187D01*
X152871401Y-107638495D01*
X153038495Y-107471401D01*
X153101094Y-107382000D01*
X155458000Y-107382000D01*
X155458000Y-107429844D01*
X155464401Y-107489372D01*
X155464403Y-107489379D01*
X155514645Y-107624086D01*
X155514649Y-107624093D01*
X155600809Y-107739187D01*
X155600812Y-107739190D01*
X155715906Y-107825350D01*
X155715913Y-107825354D01*
X155850620Y-107875596D01*
X155850627Y-107875598D01*
X155910155Y-107881999D01*
X155910172Y-107882000D01*
X155958000Y-107882000D01*
X155958000Y-107382000D01*
X155458000Y-107382000D01*
X153101094Y-107382000D01*
X153174035Y-107277830D01*
X153273903Y-107063663D01*
X153335063Y-106835408D01*
X153349228Y-106673504D01*
X156313600Y-106673504D01*
X156341295Y-106776865D01*
X156394799Y-106869536D01*
X156470464Y-106945201D01*
X156563135Y-106998705D01*
X156666496Y-107026400D01*
X156773504Y-107026400D01*
X156876865Y-106998705D01*
X156969536Y-106945201D01*
X157045201Y-106869536D01*
X157098705Y-106776865D01*
X157126400Y-106673504D01*
X157126400Y-106566496D01*
X157098705Y-106463135D01*
X157045201Y-106370464D01*
X156969536Y-106294799D01*
X156876865Y-106241295D01*
X156773504Y-106213600D01*
X156666496Y-106213600D01*
X156563135Y-106241295D01*
X156470464Y-106294799D01*
X156394799Y-106370464D01*
X156341295Y-106463135D01*
X156313600Y-106566496D01*
X156313600Y-106673504D01*
X153349228Y-106673504D01*
X153355659Y-106600000D01*
X153335063Y-106364592D01*
X153273903Y-106136337D01*
X153174035Y-105922171D01*
X153173857Y-105921916D01*
X153129103Y-105858000D01*
X155458000Y-105858000D01*
X155958000Y-105858000D01*
X155958000Y-105358000D01*
X155910155Y-105358000D01*
X155850627Y-105364401D01*
X155850620Y-105364403D01*
X155715913Y-105414645D01*
X155715906Y-105414649D01*
X155600812Y-105500809D01*
X155600809Y-105500812D01*
X155514649Y-105615906D01*
X155514645Y-105615913D01*
X155464403Y-105750620D01*
X155464401Y-105750627D01*
X155458000Y-105810155D01*
X155458000Y-105858000D01*
X153129103Y-105858000D01*
X153038494Y-105728597D01*
X152871402Y-105561506D01*
X152871396Y-105561501D01*
X152685842Y-105431575D01*
X152642217Y-105376998D01*
X152635023Y-105307500D01*
X152666546Y-105245145D01*
X152685842Y-105228425D01*
X152712972Y-105209428D01*
X152871401Y-105098495D01*
X153038495Y-104931401D01*
X153174035Y-104737830D01*
X153273903Y-104523663D01*
X153335063Y-104295408D01*
X153355659Y-104060000D01*
X153335063Y-103824592D01*
X153273903Y-103596337D01*
X153174035Y-103382171D01*
X153168425Y-103374158D01*
X153038494Y-103188597D01*
X152871402Y-103021506D01*
X152871396Y-103021501D01*
X152685842Y-102891575D01*
X152642217Y-102836998D01*
X152635023Y-102767500D01*
X152666546Y-102705145D01*
X152685842Y-102688425D01*
X152708026Y-102672891D01*
X152871401Y-102558495D01*
X153038495Y-102391401D01*
X153174035Y-102197830D01*
X153273903Y-101983663D01*
X153335063Y-101755408D01*
X153355659Y-101520000D01*
X153335063Y-101284592D01*
X153273903Y-101056337D01*
X153174035Y-100842171D01*
X153168425Y-100834158D01*
X153038494Y-100648597D01*
X152871402Y-100481506D01*
X152871396Y-100481501D01*
X152685842Y-100351575D01*
X152642217Y-100296998D01*
X152635023Y-100227500D01*
X152666546Y-100165145D01*
X152685842Y-100148425D01*
X152724570Y-100121307D01*
X152871401Y-100018495D01*
X153038495Y-99851401D01*
X153174035Y-99657830D01*
X153273903Y-99443663D01*
X153335063Y-99215408D01*
X153355659Y-98980000D01*
X153335063Y-98744592D01*
X153273903Y-98516337D01*
X153174035Y-98302171D01*
X153168425Y-98294158D01*
X153038494Y-98108597D01*
X152871402Y-97941506D01*
X152871396Y-97941501D01*
X152685842Y-97811575D01*
X152642217Y-97756998D01*
X152635023Y-97687500D01*
X152666546Y-97625145D01*
X152685842Y-97608425D01*
X152837458Y-97502262D01*
X152871401Y-97478495D01*
X153038495Y-97311401D01*
X153174035Y-97117830D01*
X153273903Y-96903663D01*
X153335063Y-96675408D01*
X153355659Y-96440000D01*
X153335063Y-96204592D01*
X153273903Y-95976337D01*
X153174035Y-95762171D01*
X153168425Y-95754158D01*
X153038494Y-95568597D01*
X152871402Y-95401506D01*
X152871396Y-95401501D01*
X152685842Y-95271575D01*
X152642217Y-95216998D01*
X152635023Y-95147500D01*
X152666546Y-95085145D01*
X152685842Y-95068425D01*
X152708026Y-95052891D01*
X152871401Y-94938495D01*
X153038495Y-94771401D01*
X153174035Y-94577830D01*
X153210327Y-94500001D01*
X154034532Y-94500001D01*
X154054364Y-94726686D01*
X154054366Y-94726697D01*
X154113258Y-94946488D01*
X154113261Y-94946497D01*
X154209431Y-95152732D01*
X154209432Y-95152734D01*
X154339954Y-95339141D01*
X154500858Y-95500045D01*
X154500861Y-95500047D01*
X154687266Y-95630568D01*
X154893504Y-95726739D01*
X155113308Y-95785635D01*
X155275230Y-95799801D01*
X155339998Y-95805468D01*
X155340000Y-95805468D01*
X155340002Y-95805468D01*
X155396673Y-95800509D01*
X155566692Y-95785635D01*
X155786496Y-95726739D01*
X155992734Y-95630568D01*
X156179139Y-95500047D01*
X156340047Y-95339139D01*
X156470568Y-95152734D01*
X156566739Y-94946496D01*
X156625635Y-94726692D01*
X156645468Y-94500000D01*
X156625635Y-94273308D01*
X156566739Y-94053504D01*
X156470568Y-93847266D01*
X156365088Y-93696623D01*
X156340045Y-93660858D01*
X156179141Y-93499954D01*
X155992734Y-93369432D01*
X155992732Y-93369431D01*
X155786497Y-93273261D01*
X155786488Y-93273258D01*
X155566697Y-93214366D01*
X155566693Y-93214365D01*
X155566692Y-93214365D01*
X155566691Y-93214364D01*
X155566686Y-93214364D01*
X155340002Y-93194532D01*
X155339998Y-93194532D01*
X155113313Y-93214364D01*
X155113302Y-93214366D01*
X154893511Y-93273258D01*
X154893502Y-93273261D01*
X154687267Y-93369431D01*
X154687265Y-93369432D01*
X154500858Y-93499954D01*
X154339954Y-93660858D01*
X154209432Y-93847265D01*
X154209431Y-93847267D01*
X154113261Y-94053502D01*
X154113258Y-94053511D01*
X154054366Y-94273302D01*
X154054364Y-94273313D01*
X154034532Y-94499998D01*
X154034532Y-94500001D01*
X153210327Y-94500001D01*
X153273903Y-94363663D01*
X153335063Y-94135408D01*
X153355659Y-93900000D01*
X153335063Y-93664592D01*
X153273903Y-93436337D01*
X153174035Y-93222171D01*
X153168570Y-93214365D01*
X153038494Y-93028597D01*
X152871402Y-92861506D01*
X152871396Y-92861501D01*
X152685842Y-92731575D01*
X152642217Y-92676998D01*
X152635023Y-92607500D01*
X152666546Y-92545145D01*
X152685842Y-92528425D01*
X152708026Y-92512891D01*
X152871401Y-92398495D01*
X153038495Y-92231401D01*
X153174035Y-92037830D01*
X153273903Y-91823663D01*
X153335063Y-91595408D01*
X153355659Y-91360000D01*
X153335063Y-91124592D01*
X153273903Y-90896337D01*
X153174035Y-90682171D01*
X153168425Y-90674158D01*
X153038494Y-90488597D01*
X152871402Y-90321506D01*
X152871401Y-90321505D01*
X152685405Y-90191269D01*
X152641781Y-90136692D01*
X152634588Y-90067193D01*
X152666110Y-90004839D01*
X152685405Y-89988119D01*
X152871082Y-89858105D01*
X153038109Y-89691078D01*
X153052869Y-89670000D01*
X151274000Y-89670000D01*
X151206961Y-89650315D01*
X151161206Y-89597511D01*
X151150000Y-89546000D01*
X151150000Y-88885826D01*
X151500000Y-88885826D01*
X151534075Y-89012993D01*
X151599901Y-89127007D01*
X151692993Y-89220099D01*
X151807007Y-89285925D01*
X151934174Y-89320000D01*
X152065826Y-89320000D01*
X152192993Y-89285925D01*
X152307007Y-89220099D01*
X152400099Y-89127007D01*
X152465925Y-89012993D01*
X152500000Y-88885826D01*
X152500000Y-88754174D01*
X152465925Y-88627007D01*
X152400099Y-88512993D01*
X152307007Y-88419901D01*
X152192993Y-88354075D01*
X152065826Y-88320000D01*
X151934174Y-88320000D01*
X151807007Y-88354075D01*
X151692993Y-88419901D01*
X151599901Y-88512993D01*
X151534075Y-88627007D01*
X151500000Y-88754174D01*
X151500000Y-88885826D01*
X151150000Y-88885826D01*
X151150000Y-88094000D01*
X151169685Y-88026961D01*
X151222489Y-87981206D01*
X151274000Y-87970000D01*
X153052869Y-87970000D01*
X153038109Y-87948921D01*
X152871078Y-87781890D01*
X152685405Y-87651879D01*
X152641780Y-87597302D01*
X152634588Y-87527804D01*
X152666110Y-87465449D01*
X152685406Y-87448730D01*
X152685842Y-87448425D01*
X152871401Y-87318495D01*
X153038495Y-87151401D01*
X153174035Y-86957830D01*
X153273903Y-86743663D01*
X153335063Y-86515408D01*
X153355659Y-86280000D01*
X153335063Y-86044592D01*
X153273903Y-85816337D01*
X153174035Y-85602171D01*
X153168425Y-85594158D01*
X153038494Y-85408597D01*
X152871402Y-85241506D01*
X152871396Y-85241501D01*
X152685842Y-85111575D01*
X152642217Y-85056998D01*
X152635023Y-84987500D01*
X152666546Y-84925145D01*
X152685842Y-84908425D01*
X152708026Y-84892891D01*
X152871401Y-84778495D01*
X153038495Y-84611401D01*
X153174035Y-84417830D01*
X153273903Y-84203663D01*
X153335063Y-83975408D01*
X153355659Y-83740000D01*
X153335063Y-83504592D01*
X153292686Y-83346437D01*
X153291844Y-83343293D01*
X153293507Y-83273443D01*
X153332670Y-83215581D01*
X153396899Y-83188077D01*
X153411619Y-83187200D01*
X155074470Y-83187200D01*
X155141509Y-83206885D01*
X155162151Y-83223519D01*
X165036301Y-93097669D01*
X165069786Y-93158992D01*
X165064802Y-93228684D01*
X165022930Y-93284617D01*
X165001025Y-93297732D01*
X164847267Y-93369431D01*
X164847265Y-93369432D01*
X164660858Y-93499954D01*
X164499954Y-93660858D01*
X164369432Y-93847265D01*
X164369431Y-93847267D01*
X164273261Y-94053502D01*
X164273258Y-94053511D01*
X164214366Y-94273302D01*
X164214364Y-94273313D01*
X164194532Y-94499998D01*
X164194532Y-94500001D01*
X164214364Y-94726686D01*
X164214366Y-94726697D01*
X164273258Y-94946488D01*
X164273261Y-94946497D01*
X164369431Y-95152732D01*
X164369432Y-95152734D01*
X164499954Y-95339141D01*
X164660859Y-95500046D01*
X164696621Y-95525086D01*
X164740247Y-95579662D01*
X164749500Y-95626662D01*
X164749500Y-95726082D01*
X164749500Y-95873918D01*
X164749500Y-95873920D01*
X164749499Y-95873920D01*
X164778340Y-96018907D01*
X164778343Y-96018917D01*
X164834912Y-96155488D01*
X164834919Y-96155501D01*
X164917048Y-96278415D01*
X164917051Y-96278419D01*
X165021580Y-96382948D01*
X165021588Y-96382954D01*
X165146137Y-96466175D01*
X165164928Y-96481596D01*
X165991392Y-97308059D01*
X166014058Y-97344125D01*
X166015888Y-97343244D01*
X166018909Y-97349518D01*
X166018911Y-97349522D01*
X166114884Y-97502262D01*
X166242438Y-97629816D01*
X166300375Y-97666220D01*
X166346665Y-97718553D01*
X166357314Y-97787607D01*
X166328939Y-97851455D01*
X166286808Y-97883594D01*
X166246345Y-97902462D01*
X166246338Y-97902466D01*
X166065377Y-98029175D01*
X165909175Y-98185377D01*
X165782466Y-98366338D01*
X165782465Y-98366340D01*
X165722382Y-98495189D01*
X165676209Y-98547628D01*
X165609016Y-98566780D01*
X165542135Y-98546564D01*
X165497618Y-98495189D01*
X165437534Y-98366340D01*
X165437533Y-98366338D01*
X165310827Y-98185381D01*
X165234043Y-98108597D01*
X165154620Y-98029174D01*
X165154616Y-98029171D01*
X165154615Y-98029170D01*
X164973666Y-97902468D01*
X164973662Y-97902466D01*
X164969439Y-97900497D01*
X164773450Y-97809106D01*
X164773447Y-97809105D01*
X164773445Y-97809104D01*
X164560070Y-97751930D01*
X164560062Y-97751929D01*
X164340002Y-97732677D01*
X164339998Y-97732677D01*
X164119937Y-97751929D01*
X164119929Y-97751930D01*
X163906554Y-97809104D01*
X163906548Y-97809107D01*
X163706340Y-97902465D01*
X163706338Y-97902466D01*
X163525377Y-98029175D01*
X163369175Y-98185377D01*
X163242466Y-98366338D01*
X163242465Y-98366340D01*
X163182382Y-98495189D01*
X163136209Y-98547628D01*
X163069016Y-98566780D01*
X163002135Y-98546564D01*
X162957618Y-98495189D01*
X162897534Y-98366340D01*
X162897533Y-98366338D01*
X162770827Y-98185381D01*
X162694043Y-98108597D01*
X162614620Y-98029174D01*
X162614616Y-98029171D01*
X162614615Y-98029170D01*
X162433666Y-97902468D01*
X162433662Y-97902466D01*
X162429439Y-97900497D01*
X162233450Y-97809106D01*
X162233447Y-97809105D01*
X162233445Y-97809104D01*
X162020070Y-97751930D01*
X162020062Y-97751929D01*
X161800002Y-97732677D01*
X161799998Y-97732677D01*
X161579937Y-97751929D01*
X161579929Y-97751930D01*
X161366554Y-97809104D01*
X161366548Y-97809107D01*
X161166340Y-97902465D01*
X161166338Y-97902466D01*
X160985377Y-98029175D01*
X160829175Y-98185377D01*
X160702466Y-98366338D01*
X160702465Y-98366340D01*
X160642382Y-98495189D01*
X160596209Y-98547628D01*
X160529016Y-98566780D01*
X160462135Y-98546564D01*
X160417618Y-98495189D01*
X160357534Y-98366340D01*
X160357533Y-98366338D01*
X160230827Y-98185381D01*
X160154043Y-98108597D01*
X160074620Y-98029174D01*
X160074616Y-98029171D01*
X160074615Y-98029170D01*
X159893666Y-97902468D01*
X159893662Y-97902466D01*
X159889439Y-97900497D01*
X159693450Y-97809106D01*
X159693447Y-97809105D01*
X159693445Y-97809104D01*
X159480070Y-97751930D01*
X159480062Y-97751929D01*
X159260002Y-97732677D01*
X159259998Y-97732677D01*
X159039937Y-97751929D01*
X159039929Y-97751930D01*
X158826554Y-97809104D01*
X158826548Y-97809107D01*
X158626340Y-97902465D01*
X158626338Y-97902466D01*
X158445377Y-98029175D01*
X158289175Y-98185377D01*
X158162466Y-98366338D01*
X158162465Y-98366340D01*
X158102382Y-98495189D01*
X158056209Y-98547628D01*
X157989016Y-98566780D01*
X157922135Y-98546564D01*
X157877618Y-98495189D01*
X157817534Y-98366340D01*
X157817533Y-98366338D01*
X157690827Y-98185381D01*
X157614043Y-98108597D01*
X157534620Y-98029174D01*
X157534616Y-98029171D01*
X157534615Y-98029170D01*
X157353666Y-97902468D01*
X157353662Y-97902466D01*
X157349439Y-97900497D01*
X157153450Y-97809106D01*
X157153447Y-97809105D01*
X157153445Y-97809104D01*
X156940070Y-97751930D01*
X156940062Y-97751929D01*
X156720002Y-97732677D01*
X156719998Y-97732677D01*
X156499937Y-97751929D01*
X156499929Y-97751930D01*
X156286554Y-97809104D01*
X156286548Y-97809107D01*
X156086340Y-97902465D01*
X156086338Y-97902466D01*
X155905377Y-98029175D01*
X155749175Y-98185377D01*
X155622466Y-98366338D01*
X155622465Y-98366340D01*
X155529107Y-98566548D01*
X155529104Y-98566554D01*
X155471930Y-98779929D01*
X155471929Y-98779937D01*
X155452677Y-98999997D01*
X155452677Y-99000002D01*
X155471929Y-99220062D01*
X155471930Y-99220070D01*
X155529104Y-99433445D01*
X155529105Y-99433447D01*
X155529106Y-99433450D01*
X155562382Y-99504811D01*
X155622466Y-99633662D01*
X155622468Y-99633666D01*
X155749170Y-99814615D01*
X155749175Y-99814621D01*
X155905378Y-99970824D01*
X155905384Y-99970829D01*
X156086333Y-100097531D01*
X156086335Y-100097532D01*
X156086338Y-100097534D01*
X156286550Y-100190894D01*
X156499932Y-100248070D01*
X156657123Y-100261822D01*
X156719998Y-100267323D01*
X156720000Y-100267323D01*
X156720002Y-100267323D01*
X156776306Y-100262397D01*
X156940068Y-100248070D01*
X157153450Y-100190894D01*
X157353662Y-100097534D01*
X157534620Y-99970826D01*
X157690826Y-99814620D01*
X157817534Y-99633662D01*
X157877618Y-99504811D01*
X157923790Y-99452371D01*
X157990983Y-99433219D01*
X158057865Y-99453435D01*
X158102382Y-99504811D01*
X158162464Y-99633658D01*
X158162468Y-99633666D01*
X158289170Y-99814615D01*
X158289175Y-99814621D01*
X158445378Y-99970824D01*
X158445384Y-99970829D01*
X158626333Y-100097531D01*
X158626335Y-100097532D01*
X158626338Y-100097534D01*
X158826550Y-100190894D01*
X159039932Y-100248070D01*
X159197123Y-100261822D01*
X159259998Y-100267323D01*
X159260000Y-100267323D01*
X159260002Y-100267323D01*
X159316306Y-100262397D01*
X159480068Y-100248070D01*
X159693450Y-100190894D01*
X159893662Y-100097534D01*
X160074620Y-99970826D01*
X160230826Y-99814620D01*
X160357534Y-99633662D01*
X160417618Y-99504811D01*
X160463790Y-99452371D01*
X160530983Y-99433219D01*
X160597865Y-99453435D01*
X160642382Y-99504811D01*
X160702464Y-99633658D01*
X160702468Y-99633666D01*
X160829170Y-99814615D01*
X160829175Y-99814621D01*
X160985378Y-99970824D01*
X160985384Y-99970829D01*
X161166333Y-100097531D01*
X161166335Y-100097532D01*
X161166338Y-100097534D01*
X161366550Y-100190894D01*
X161579932Y-100248070D01*
X161737123Y-100261822D01*
X161799998Y-100267323D01*
X161800000Y-100267323D01*
X161800002Y-100267323D01*
X161856306Y-100262397D01*
X162020068Y-100248070D01*
X162233450Y-100190894D01*
X162433662Y-100097534D01*
X162614620Y-99970826D01*
X162770826Y-99814620D01*
X162897534Y-99633662D01*
X162957618Y-99504811D01*
X163003790Y-99452371D01*
X163070983Y-99433219D01*
X163137865Y-99453435D01*
X163182382Y-99504811D01*
X163242464Y-99633658D01*
X163242468Y-99633666D01*
X163369170Y-99814615D01*
X163369175Y-99814621D01*
X163525378Y-99970824D01*
X163525384Y-99970829D01*
X163706333Y-100097531D01*
X163706335Y-100097532D01*
X163706338Y-100097534D01*
X163906550Y-100190894D01*
X164119932Y-100248070D01*
X164277123Y-100261822D01*
X164339998Y-100267323D01*
X164340000Y-100267323D01*
X164340002Y-100267323D01*
X164396306Y-100262397D01*
X164560068Y-100248070D01*
X164773450Y-100190894D01*
X164973662Y-100097534D01*
X165154620Y-99970826D01*
X165310826Y-99814620D01*
X165437534Y-99633662D01*
X165497618Y-99504811D01*
X165543790Y-99452371D01*
X165610983Y-99433219D01*
X165677865Y-99453435D01*
X165722382Y-99504811D01*
X165782464Y-99633658D01*
X165782468Y-99633666D01*
X165909170Y-99814615D01*
X165909175Y-99814621D01*
X166065378Y-99970824D01*
X166065384Y-99970829D01*
X166246333Y-100097531D01*
X166246335Y-100097532D01*
X166246338Y-100097534D01*
X166446550Y-100190894D01*
X166659932Y-100248070D01*
X166817123Y-100261822D01*
X166879998Y-100267323D01*
X166880000Y-100267323D01*
X166880002Y-100267323D01*
X166936306Y-100262397D01*
X167100068Y-100248070D01*
X167243410Y-100209661D01*
X167313255Y-100211324D01*
X167371118Y-100250486D01*
X167398623Y-100314714D01*
X167399500Y-100329436D01*
X167399500Y-102883918D01*
X167399500Y-102883920D01*
X167399499Y-102883920D01*
X167428340Y-103028907D01*
X167428342Y-103028913D01*
X167484917Y-103165497D01*
X167490178Y-103173370D01*
X167490179Y-103173373D01*
X167567046Y-103288414D01*
X167567052Y-103288421D01*
X169426737Y-105148105D01*
X169460222Y-105209428D01*
X169455238Y-105279120D01*
X169413366Y-105335053D01*
X169349864Y-105359314D01*
X169246030Y-105368398D01*
X169246030Y-105368399D01*
X170686323Y-106808692D01*
X170718417Y-106864279D01*
X170769103Y-107053442D01*
X170769106Y-107053450D01*
X170802382Y-107124811D01*
X170862466Y-107253662D01*
X170862468Y-107253666D01*
X170989170Y-107434615D01*
X170989175Y-107434621D01*
X171145378Y-107590824D01*
X171145384Y-107590829D01*
X171326333Y-107717531D01*
X171326335Y-107717532D01*
X171326338Y-107717534D01*
X171526550Y-107810894D01*
X171739932Y-107868070D01*
X171897123Y-107881822D01*
X171959998Y-107887323D01*
X171960000Y-107887323D01*
X171960002Y-107887323D01*
X172015017Y-107882509D01*
X172180068Y-107868070D01*
X172393450Y-107810894D01*
X172593662Y-107717534D01*
X172774620Y-107590826D01*
X172930826Y-107434620D01*
X172931603Y-107433509D01*
X172938700Y-107423376D01*
X172993277Y-107379751D01*
X173040274Y-107370500D01*
X173419726Y-107370500D01*
X173486765Y-107390185D01*
X173521300Y-107423376D01*
X173529171Y-107434617D01*
X173529173Y-107434619D01*
X173529174Y-107434620D01*
X173685380Y-107590826D01*
X173685383Y-107590828D01*
X173685384Y-107590829D01*
X173866333Y-107717531D01*
X173866335Y-107717532D01*
X173866338Y-107717534D01*
X174066550Y-107810894D01*
X174279932Y-107868070D01*
X174437123Y-107881822D01*
X174499998Y-107887323D01*
X174500000Y-107887323D01*
X174500002Y-107887323D01*
X174555017Y-107882509D01*
X174720068Y-107868070D01*
X174933450Y-107810894D01*
X175133662Y-107717534D01*
X175157408Y-107700906D01*
X175164876Y-107695678D01*
X175231082Y-107673350D01*
X175298849Y-107690360D01*
X175346663Y-107741307D01*
X175360000Y-107797252D01*
X175360000Y-108000009D01*
X175359576Y-108010250D01*
X175354857Y-108067195D01*
X175354857Y-108067204D01*
X175359576Y-108124148D01*
X175360000Y-108134389D01*
X175360000Y-108185296D01*
X175369014Y-108242205D01*
X175370115Y-108251347D01*
X175373962Y-108297772D01*
X175375392Y-108315024D01*
X175387770Y-108363903D01*
X175390037Y-108374943D01*
X175396947Y-108418569D01*
X175416832Y-108479769D01*
X175419106Y-108487646D01*
X175436435Y-108556074D01*
X175436439Y-108556087D01*
X175453987Y-108596092D01*
X175458362Y-108607584D01*
X175469930Y-108643189D01*
X175469932Y-108643192D01*
X175502196Y-108706514D01*
X175505267Y-108712998D01*
X175536326Y-108783806D01*
X175536329Y-108783810D01*
X175556538Y-108814742D01*
X175563215Y-108826269D01*
X175577158Y-108853634D01*
X175577164Y-108853643D01*
X175622879Y-108916565D01*
X175626370Y-108921629D01*
X175672332Y-108991979D01*
X175672336Y-108991985D01*
X175692809Y-109014225D01*
X175701895Y-109025319D01*
X175715981Y-109044708D01*
X175775716Y-109104443D01*
X175779264Y-109108141D01*
X175840752Y-109174934D01*
X175840756Y-109174938D01*
X175859291Y-109189364D01*
X175870810Y-109199537D01*
X175882990Y-109211717D01*
X175882993Y-109211719D01*
X175956763Y-109265316D01*
X175960027Y-109267770D01*
X176036991Y-109327674D01*
X176051714Y-109335642D01*
X176065579Y-109344376D01*
X176074067Y-109350543D01*
X176161315Y-109394998D01*
X176164003Y-109396409D01*
X176255690Y-109446028D01*
X176265143Y-109449273D01*
X176281173Y-109456069D01*
X176284508Y-109457768D01*
X176284513Y-109457769D01*
X176284514Y-109457770D01*
X176384017Y-109490100D01*
X176385881Y-109490722D01*
X176490886Y-109526771D01*
X176491666Y-109526901D01*
X176494083Y-109527305D01*
X176504342Y-109529812D01*
X176504390Y-109529615D01*
X176509123Y-109530750D01*
X176509132Y-109530753D01*
X176575887Y-109541325D01*
X176619139Y-109548176D01*
X176620062Y-109548325D01*
X176736165Y-109567700D01*
X176736166Y-109567700D01*
X176984833Y-109567700D01*
X176984835Y-109567700D01*
X177101032Y-109548309D01*
X177101717Y-109548197D01*
X177211868Y-109530753D01*
X177211879Y-109530749D01*
X177216610Y-109529614D01*
X177216657Y-109529812D01*
X177226914Y-109527304D01*
X177230114Y-109526771D01*
X177335188Y-109490697D01*
X177336860Y-109490139D01*
X177436492Y-109457768D01*
X177439821Y-109456071D01*
X177455855Y-109449274D01*
X177457769Y-109448616D01*
X177465310Y-109446028D01*
X177557024Y-109396394D01*
X177559617Y-109395031D01*
X177646933Y-109350543D01*
X177655416Y-109344378D01*
X177669280Y-109335644D01*
X177684009Y-109327674D01*
X177760965Y-109267775D01*
X177764180Y-109265356D01*
X177838010Y-109211717D01*
X177850199Y-109199527D01*
X177861710Y-109189362D01*
X177880244Y-109174938D01*
X177941734Y-109108140D01*
X177945234Y-109104491D01*
X178005017Y-109044710D01*
X178019104Y-109025319D01*
X178028195Y-109014219D01*
X178028197Y-109014217D01*
X178048664Y-108991985D01*
X178094639Y-108921612D01*
X178098111Y-108916574D01*
X178143843Y-108853633D01*
X178157785Y-108826266D01*
X178164462Y-108814741D01*
X178184671Y-108783810D01*
X178184673Y-108783807D01*
X178215740Y-108712977D01*
X178218786Y-108706545D01*
X178251068Y-108643192D01*
X178262636Y-108607583D01*
X178267013Y-108596090D01*
X178284560Y-108556087D01*
X178284563Y-108556081D01*
X178301897Y-108487628D01*
X178304167Y-108479769D01*
X178324053Y-108418568D01*
X178330965Y-108374918D01*
X178333224Y-108363920D01*
X178345608Y-108315021D01*
X178350882Y-108251352D01*
X178351986Y-108242198D01*
X178361000Y-108185290D01*
X178361000Y-108134389D01*
X178361424Y-108124148D01*
X178366143Y-108067204D01*
X178366143Y-108067195D01*
X178361424Y-108010250D01*
X178361000Y-108000009D01*
X178361000Y-95985202D01*
X178329391Y-95785635D01*
X178324053Y-95751932D01*
X178264484Y-95568599D01*
X178264483Y-95568597D01*
X178251070Y-95527313D01*
X178251065Y-95527301D01*
X178213515Y-95453603D01*
X178200000Y-95397309D01*
X178200000Y-94552661D01*
X178600000Y-94552661D01*
X178627259Y-94654394D01*
X178679920Y-94745606D01*
X178754394Y-94820080D01*
X178845606Y-94872741D01*
X178947339Y-94900000D01*
X179052661Y-94900000D01*
X179154394Y-94872741D01*
X179245606Y-94820080D01*
X179320080Y-94745606D01*
X179372741Y-94654394D01*
X179400000Y-94552661D01*
X179400000Y-94447339D01*
X179372741Y-94345606D01*
X179320080Y-94254394D01*
X179245606Y-94179920D01*
X179154394Y-94127259D01*
X179052661Y-94100000D01*
X178947339Y-94100000D01*
X178845606Y-94127259D01*
X178754394Y-94179920D01*
X178679920Y-94254394D01*
X178627259Y-94345606D01*
X178600000Y-94447339D01*
X178600000Y-94552661D01*
X178200000Y-94552661D01*
X178200000Y-93473158D01*
X178161186Y-93500336D01*
X178161180Y-93500341D01*
X178000342Y-93661179D01*
X177869867Y-93847515D01*
X177854682Y-93880080D01*
X177808509Y-93932519D01*
X177741315Y-93951670D01*
X177674434Y-93931454D01*
X177629100Y-93878288D01*
X177618300Y-93827674D01*
X177618300Y-91424000D01*
X177637985Y-91356961D01*
X177675844Y-91324155D01*
X177700000Y-91300000D01*
X177700000Y-90800000D01*
X179300000Y-90800000D01*
X179300000Y-91300000D01*
X179347828Y-91300000D01*
X179347844Y-91299999D01*
X179407372Y-91293598D01*
X179407379Y-91293596D01*
X179542086Y-91243354D01*
X179542093Y-91243350D01*
X179657187Y-91157190D01*
X179657190Y-91157187D01*
X179743350Y-91042093D01*
X179743354Y-91042086D01*
X179793596Y-90907379D01*
X179793598Y-90907372D01*
X179799999Y-90847844D01*
X179800000Y-90847827D01*
X179800000Y-90800000D01*
X179300000Y-90800000D01*
X177700000Y-90800000D01*
X177700000Y-90052661D01*
X178100000Y-90052661D01*
X178127259Y-90154394D01*
X178179920Y-90245606D01*
X178254394Y-90320080D01*
X178345606Y-90372741D01*
X178447339Y-90400000D01*
X178552661Y-90400000D01*
X178654394Y-90372741D01*
X178745606Y-90320080D01*
X178820080Y-90245606D01*
X178872741Y-90154394D01*
X178900000Y-90052661D01*
X178900000Y-89947339D01*
X178872741Y-89845606D01*
X178820080Y-89754394D01*
X178745606Y-89679920D01*
X178654394Y-89627259D01*
X178552661Y-89600000D01*
X178447339Y-89600000D01*
X178345606Y-89627259D01*
X178254394Y-89679920D01*
X178179920Y-89754394D01*
X178127259Y-89845606D01*
X178100000Y-89947339D01*
X178100000Y-90052661D01*
X177700000Y-90052661D01*
X177700000Y-89324000D01*
X177719685Y-89256961D01*
X177772489Y-89211206D01*
X177824000Y-89200000D01*
X179800000Y-89200000D01*
X179800000Y-89152172D01*
X179799999Y-89152155D01*
X179793598Y-89092627D01*
X179793596Y-89092620D01*
X179743354Y-88957913D01*
X179743350Y-88957906D01*
X179657190Y-88842812D01*
X179657187Y-88842809D01*
X179542093Y-88756649D01*
X179542086Y-88756645D01*
X179407379Y-88706403D01*
X179407373Y-88706401D01*
X179371778Y-88702574D01*
X179307228Y-88675835D01*
X179267381Y-88618441D01*
X179264888Y-88548616D01*
X179300542Y-88488528D01*
X179313908Y-88477713D01*
X179339139Y-88460047D01*
X179500047Y-88299139D01*
X179630568Y-88112734D01*
X179726739Y-87906496D01*
X179785635Y-87686692D01*
X179805468Y-87460000D01*
X179785635Y-87233308D01*
X179726739Y-87013504D01*
X179630568Y-86807266D01*
X179500047Y-86620861D01*
X179500045Y-86620858D01*
X179339141Y-86459954D01*
X179152734Y-86329432D01*
X179152728Y-86329429D01*
X179094725Y-86302382D01*
X179042285Y-86256210D01*
X179023133Y-86189017D01*
X179043348Y-86122135D01*
X179094725Y-86077618D01*
X179152734Y-86050568D01*
X179339139Y-85920047D01*
X179500047Y-85759139D01*
X179630568Y-85572734D01*
X179726739Y-85366496D01*
X179785635Y-85146692D01*
X179805468Y-84920000D01*
X179785635Y-84693308D01*
X179726739Y-84473504D01*
X179630568Y-84267266D01*
X179500047Y-84080861D01*
X179500045Y-84080858D01*
X179339141Y-83919954D01*
X179152734Y-83789432D01*
X179152728Y-83789429D01*
X179094725Y-83762382D01*
X179042285Y-83716210D01*
X179023133Y-83649017D01*
X179043348Y-83582135D01*
X179094725Y-83537618D01*
X179152734Y-83510568D01*
X179339139Y-83380047D01*
X179347676Y-83371508D01*
X179389559Y-83346437D01*
X179388708Y-83344382D01*
X179394334Y-83342051D01*
X179394336Y-83342051D01*
X179447665Y-83319961D01*
X179576414Y-83266632D01*
X179740282Y-83157139D01*
X179879639Y-83017782D01*
X179879640Y-83017779D01*
X179886706Y-83010714D01*
X179886709Y-83010710D01*
X180287819Y-82609600D01*
X180349142Y-82576115D01*
X180418834Y-82581099D01*
X180474767Y-82622971D01*
X180499184Y-82688435D01*
X180499500Y-82697281D01*
X180499500Y-94131519D01*
X180479815Y-94198558D01*
X180427011Y-94244313D01*
X180357853Y-94254257D01*
X180294297Y-94225232D01*
X180256523Y-94166454D01*
X180255725Y-94163613D01*
X180226268Y-94053679D01*
X180226265Y-94053673D01*
X180130134Y-93847517D01*
X179999657Y-93661179D01*
X179838819Y-93500341D01*
X179838813Y-93500336D01*
X179800000Y-93473158D01*
X179800000Y-95526841D01*
X179838814Y-95499663D01*
X179999660Y-95338816D01*
X180130134Y-95152482D01*
X180226265Y-94946326D01*
X180226269Y-94946317D01*
X180255725Y-94836387D01*
X180292090Y-94776726D01*
X180354937Y-94746197D01*
X180424312Y-94754492D01*
X180478190Y-94798977D01*
X180499465Y-94865529D01*
X180499500Y-94868480D01*
X180499500Y-97565891D01*
X180533608Y-97693187D01*
X180556306Y-97732500D01*
X180599500Y-97807314D01*
X180692686Y-97900500D01*
X180806814Y-97966392D01*
X180934108Y-98000500D01*
X180934110Y-98000500D01*
X203065890Y-98000500D01*
X203065892Y-98000500D01*
X203193186Y-97966392D01*
X203307314Y-97900500D01*
X203400500Y-97807314D01*
X203466392Y-97693186D01*
X203500500Y-97565892D01*
X203500500Y-82434108D01*
X203466392Y-82306814D01*
X203400500Y-82192686D01*
X203307314Y-82099500D01*
X203250250Y-82066554D01*
X203193187Y-82033608D01*
X203114734Y-82012587D01*
X203065892Y-81999500D01*
X181197281Y-81999500D01*
X181130242Y-81979815D01*
X181084487Y-81927011D01*
X181074543Y-81857853D01*
X181103568Y-81794297D01*
X181109600Y-81787819D01*
X183291134Y-79606286D01*
X199649500Y-79606286D01*
X199676091Y-79774178D01*
X199682754Y-79816243D01*
X199724411Y-79944450D01*
X199748444Y-80018414D01*
X199844951Y-80207820D01*
X199969890Y-80379786D01*
X200120213Y-80530109D01*
X200292179Y-80655048D01*
X200292181Y-80655049D01*
X200292184Y-80655051D01*
X200481588Y-80751557D01*
X200683757Y-80817246D01*
X200893713Y-80850500D01*
X200893714Y-80850500D01*
X201106286Y-80850500D01*
X201106287Y-80850500D01*
X201316243Y-80817246D01*
X201518412Y-80751557D01*
X201707816Y-80655051D01*
X201800344Y-80587826D01*
X201879786Y-80530109D01*
X201879788Y-80530106D01*
X201879792Y-80530104D01*
X202030104Y-80379792D01*
X202030106Y-80379788D01*
X202030109Y-80379786D01*
X202155048Y-80207820D01*
X202155047Y-80207820D01*
X202155051Y-80207816D01*
X202251557Y-80018412D01*
X202317246Y-79816243D01*
X202350500Y-79606287D01*
X202350500Y-79393713D01*
X202317246Y-79183757D01*
X202251557Y-78981588D01*
X202155051Y-78792184D01*
X202155049Y-78792181D01*
X202155048Y-78792179D01*
X202030109Y-78620213D01*
X201879786Y-78469890D01*
X201707820Y-78344951D01*
X201518414Y-78248444D01*
X201518413Y-78248443D01*
X201518412Y-78248443D01*
X201316243Y-78182754D01*
X201316241Y-78182753D01*
X201316240Y-78182753D01*
X201154957Y-78157208D01*
X201106287Y-78149500D01*
X200893713Y-78149500D01*
X200845042Y-78157208D01*
X200683760Y-78182753D01*
X200481585Y-78248444D01*
X200292179Y-78344951D01*
X200120213Y-78469890D01*
X199969890Y-78620213D01*
X199844951Y-78792179D01*
X199748444Y-78981585D01*
X199682753Y-79183760D01*
X199649500Y-79393713D01*
X199649500Y-79606286D01*
X183291134Y-79606286D01*
X185150923Y-77746497D01*
X189360601Y-73536819D01*
X189421924Y-73503334D01*
X189448282Y-73500500D01*
X191000249Y-73500500D01*
X191067288Y-73520185D01*
X191099515Y-73550188D01*
X191129449Y-73590174D01*
X191142454Y-73607546D01*
X191142457Y-73607548D01*
X191257664Y-73693793D01*
X191257671Y-73693797D01*
X191392517Y-73744091D01*
X191392516Y-73744091D01*
X191399444Y-73744835D01*
X191452127Y-73750500D01*
X194547872Y-73750499D01*
X194607483Y-73744091D01*
X194742331Y-73693796D01*
X194857546Y-73607546D01*
X194943796Y-73492331D01*
X194994091Y-73357483D01*
X195000500Y-73297873D01*
X195000499Y-71702128D01*
X194994091Y-71642517D01*
X194966024Y-71567266D01*
X194943797Y-71507671D01*
X194943793Y-71507664D01*
X194857547Y-71392455D01*
X194857544Y-71392452D01*
X194742335Y-71306206D01*
X194742328Y-71306202D01*
X194607482Y-71255908D01*
X194607483Y-71255908D01*
X194547883Y-71249501D01*
X194547881Y-71249500D01*
X194547873Y-71249500D01*
X194547864Y-71249500D01*
X191452129Y-71249500D01*
X191452123Y-71249501D01*
X191392516Y-71255908D01*
X191257671Y-71306202D01*
X191257664Y-71306206D01*
X191142457Y-71392451D01*
X191142451Y-71392457D01*
X191099515Y-71449812D01*
X191043581Y-71491682D01*
X191000249Y-71499500D01*
X189214783Y-71499500D01*
X189147744Y-71479815D01*
X189101989Y-71427011D01*
X189092045Y-71357853D01*
X189121070Y-71294297D01*
X189127102Y-71287819D01*
X190253102Y-70161819D01*
X190314425Y-70128334D01*
X190340783Y-70125500D01*
X194324842Y-70125500D01*
X194344170Y-70121655D01*
X194421488Y-70106275D01*
X194518136Y-70087051D01*
X194571465Y-70064961D01*
X194700214Y-70011632D01*
X194864082Y-69902139D01*
X195003439Y-69762782D01*
X195003439Y-69762780D01*
X195013647Y-69752573D01*
X195013648Y-69752570D01*
X196027139Y-68739082D01*
X196070170Y-68674682D01*
X196136632Y-68575214D01*
X196186911Y-68453828D01*
X196212051Y-68393136D01*
X196250500Y-68199841D01*
X196250500Y-68002760D01*
X196250500Y-62401459D01*
X196250500Y-62401456D01*
X196212052Y-62208170D01*
X196212051Y-62208169D01*
X196212051Y-62208165D01*
X196212049Y-62208160D01*
X196136635Y-62026092D01*
X196136628Y-62026079D01*
X196027139Y-61862218D01*
X196027136Y-61862214D01*
X195887785Y-61722863D01*
X195887781Y-61722860D01*
X195723920Y-61613371D01*
X195723907Y-61613364D01*
X195541839Y-61537950D01*
X195541829Y-61537947D01*
X195348543Y-61499500D01*
X195348541Y-61499500D01*
X194540699Y-61499500D01*
X194473660Y-61479815D01*
X194467814Y-61475818D01*
X194405408Y-61430478D01*
X194405407Y-61430477D01*
X194405405Y-61430476D01*
X194350636Y-61402569D01*
X194230029Y-61341117D01*
X194042826Y-61280290D01*
X193848422Y-61249500D01*
X193848417Y-61249500D01*
X192151583Y-61249500D01*
X192151578Y-61249500D01*
X191957172Y-61280291D01*
X191957165Y-61280292D01*
X191912817Y-61294702D01*
X191842976Y-61296697D01*
X191783143Y-61260616D01*
X191752316Y-61197915D01*
X191750500Y-61176771D01*
X191750500Y-58823228D01*
X191770185Y-58756189D01*
X191822989Y-58710434D01*
X191892147Y-58700490D01*
X191912819Y-58705297D01*
X191957173Y-58719709D01*
X192151578Y-58750500D01*
X192151583Y-58750500D01*
X193848422Y-58750500D01*
X194042826Y-58719709D01*
X194087181Y-58705297D01*
X194230025Y-58658884D01*
X194405405Y-58569524D01*
X194564646Y-58453828D01*
X194703828Y-58314646D01*
X194819524Y-58155405D01*
X194908884Y-57980025D01*
X194969709Y-57792826D01*
X195000500Y-57598422D01*
X195000500Y-57401577D01*
X194969709Y-57207173D01*
X194941487Y-57120317D01*
X194908884Y-57019975D01*
X194908882Y-57019972D01*
X194908882Y-57019970D01*
X194819523Y-56844594D01*
X194703828Y-56685354D01*
X194564646Y-56546172D01*
X194405405Y-56430476D01*
X194230029Y-56341117D01*
X194042826Y-56280290D01*
X193848422Y-56249500D01*
X193848417Y-56249500D01*
X192151583Y-56249500D01*
X192151578Y-56249500D01*
X191957173Y-56280290D01*
X191769970Y-56341117D01*
X191594591Y-56430478D01*
X191532186Y-56475818D01*
X191466380Y-56499298D01*
X191459301Y-56499500D01*
X190651457Y-56499500D01*
X190458170Y-56537947D01*
X190458160Y-56537950D01*
X190276092Y-56613364D01*
X190276079Y-56613371D01*
X190112218Y-56722860D01*
X190112214Y-56722863D01*
X189972863Y-56862214D01*
X189972860Y-56862218D01*
X189863371Y-57026079D01*
X189863364Y-57026092D01*
X189787950Y-57208160D01*
X189787947Y-57208170D01*
X189749500Y-57401456D01*
X189749500Y-65284217D01*
X189729815Y-65351256D01*
X189713181Y-65371898D01*
X187085081Y-67999998D01*
X187023758Y-68033483D01*
X186954066Y-68028499D01*
X186898133Y-67986627D01*
X186873716Y-67921163D01*
X186873400Y-67912317D01*
X186873400Y-66084556D01*
X186834952Y-65891270D01*
X186834951Y-65891269D01*
X186834951Y-65891265D01*
X186834949Y-65891260D01*
X186759535Y-65709192D01*
X186759528Y-65709179D01*
X186650040Y-65545319D01*
X186650039Y-65545318D01*
X186510682Y-65405961D01*
X186510681Y-65405960D01*
X177325708Y-56220988D01*
X177325706Y-56220985D01*
X177325706Y-56220986D01*
X177318639Y-56213919D01*
X177318639Y-56213918D01*
X177179282Y-56074561D01*
X177179281Y-56074560D01*
X177179280Y-56074559D01*
X177015420Y-55965071D01*
X177015411Y-55965066D01*
X176942815Y-55934996D01*
X176886665Y-55911738D01*
X176833336Y-55889649D01*
X176833332Y-55889648D01*
X176833328Y-55889646D01*
X176736688Y-55870424D01*
X176640044Y-55851200D01*
X176640041Y-55851200D01*
X176610916Y-55851200D01*
X176543877Y-55831515D01*
X176498122Y-55778711D01*
X176488178Y-55709553D01*
X176517203Y-55645997D01*
X176539793Y-55625625D01*
X176719139Y-55500047D01*
X176880047Y-55339139D01*
X177010568Y-55152734D01*
X177037618Y-55094724D01*
X177083790Y-55042285D01*
X177150983Y-55023133D01*
X177217865Y-55043348D01*
X177262382Y-55094725D01*
X177289429Y-55152728D01*
X177289432Y-55152734D01*
X177419954Y-55339141D01*
X177580858Y-55500045D01*
X177580861Y-55500047D01*
X177767266Y-55630568D01*
X177973504Y-55726739D01*
X178193308Y-55785635D01*
X178355230Y-55799801D01*
X178419998Y-55805468D01*
X178420000Y-55805468D01*
X178420002Y-55805468D01*
X178482511Y-55799999D01*
X178646692Y-55785635D01*
X178866496Y-55726739D01*
X179072734Y-55630568D01*
X179259139Y-55500047D01*
X179420047Y-55339139D01*
X179550568Y-55152734D01*
X179577618Y-55094724D01*
X179623790Y-55042285D01*
X179690983Y-55023133D01*
X179757865Y-55043348D01*
X179802382Y-55094725D01*
X179829429Y-55152728D01*
X179829432Y-55152734D01*
X179959954Y-55339141D01*
X180120858Y-55500045D01*
X180120861Y-55500047D01*
X180307266Y-55630568D01*
X180513504Y-55726739D01*
X180733308Y-55785635D01*
X180895230Y-55799801D01*
X180959998Y-55805468D01*
X180960000Y-55805468D01*
X180960002Y-55805468D01*
X181022511Y-55799999D01*
X181186692Y-55785635D01*
X181406496Y-55726739D01*
X181612734Y-55630568D01*
X181799139Y-55500047D01*
X181960047Y-55339139D01*
X181977710Y-55313912D01*
X182032285Y-55270289D01*
X182101783Y-55263094D01*
X182164138Y-55294615D01*
X182199553Y-55354844D01*
X182202574Y-55371778D01*
X182206401Y-55407373D01*
X182206403Y-55407379D01*
X182256645Y-55542086D01*
X182256649Y-55542093D01*
X182342809Y-55657187D01*
X182342812Y-55657190D01*
X182457906Y-55743350D01*
X182457913Y-55743354D01*
X182592620Y-55793596D01*
X182592627Y-55793598D01*
X182652155Y-55799999D01*
X182652172Y-55800000D01*
X182700000Y-55800000D01*
X182700000Y-55300000D01*
X184300000Y-55300000D01*
X184300000Y-55800000D01*
X184347828Y-55800000D01*
X184347844Y-55799999D01*
X184407372Y-55793598D01*
X184407379Y-55793596D01*
X184542086Y-55743354D01*
X184542093Y-55743350D01*
X184657187Y-55657190D01*
X184657190Y-55657187D01*
X184743350Y-55542093D01*
X184743354Y-55542086D01*
X184793596Y-55407379D01*
X184793598Y-55407372D01*
X184799999Y-55347844D01*
X184800000Y-55347827D01*
X184800000Y-55300000D01*
X184300000Y-55300000D01*
X182700000Y-55300000D01*
X182700000Y-54552661D01*
X183100000Y-54552661D01*
X183127259Y-54654394D01*
X183179920Y-54745606D01*
X183254394Y-54820080D01*
X183345606Y-54872741D01*
X183447339Y-54900000D01*
X183552661Y-54900000D01*
X183654394Y-54872741D01*
X183745606Y-54820080D01*
X183820080Y-54745606D01*
X183872741Y-54654394D01*
X183900000Y-54552661D01*
X183900000Y-54447339D01*
X183872741Y-54345606D01*
X183820080Y-54254394D01*
X183745606Y-54179920D01*
X183654394Y-54127259D01*
X183552661Y-54100000D01*
X183447339Y-54100000D01*
X183345606Y-54127259D01*
X183254394Y-54179920D01*
X183179920Y-54254394D01*
X183127259Y-54345606D01*
X183100000Y-54447339D01*
X183100000Y-54552661D01*
X182700000Y-54552661D01*
X182700000Y-53824000D01*
X182719685Y-53756961D01*
X182772489Y-53711206D01*
X182824000Y-53700000D01*
X184800000Y-53700000D01*
X184800000Y-53652172D01*
X184799999Y-53652155D01*
X184793598Y-53592627D01*
X184793596Y-53592620D01*
X184743354Y-53457913D01*
X184743350Y-53457906D01*
X184657190Y-53342812D01*
X184657187Y-53342809D01*
X184542093Y-53256649D01*
X184542086Y-53256645D01*
X184499286Y-53240682D01*
X184443352Y-53198811D01*
X184418935Y-53133346D01*
X184433787Y-53065073D01*
X184483192Y-53015668D01*
X184542619Y-53000500D01*
X205875500Y-53000500D01*
X205942539Y-53020185D01*
G37*
%TD.AperFunction*%
%TD*%
M02*
