%TF.GenerationSoftware,KiCad,Pcbnew,8.0.1*%
%TF.CreationDate,2024-05-06T13:05:29+02:00*%
%TF.ProjectId,BotBattle,426f7442-6174-4746-9c65-2e6b69636164,rev?*%
%TF.SameCoordinates,Original*%
%TF.FileFunction,Soldermask,Top*%
%TF.FilePolarity,Negative*%
%FSLAX46Y46*%
G04 Gerber Fmt 4.6, Leading zero omitted, Abs format (unit mm)*
G04 Created by KiCad (PCBNEW 8.0.1) date 2024-05-06 13:05:29*
%MOMM*%
%LPD*%
G01*
G04 APERTURE LIST*
%ADD10R,1.524000X1.524000*%
%ADD11C,1.524000*%
%ADD12C,1.600000*%
%ADD13O,1.600000X1.600000*%
%ADD14C,2.200000*%
%ADD15R,3.000000X1.500000*%
%ADD16O,3.000000X1.500000*%
%ADD17R,1.600000X1.600000*%
%ADD18R,1.500000X3.000000*%
%ADD19O,1.500000X3.000000*%
%ADD20R,1.700000X1.700000*%
%ADD21O,1.700000X1.700000*%
G04 APERTURE END LIST*
D10*
%TO.C,U1*%
X156720000Y-106620000D03*
D11*
X159260000Y-106620000D03*
X161800000Y-106620000D03*
X164340000Y-106620000D03*
X166880000Y-106620000D03*
X169420000Y-106620000D03*
X171960000Y-106620000D03*
X174500000Y-106620000D03*
X174500000Y-99000000D03*
X171960000Y-99000000D03*
X169420000Y-99000000D03*
X166880000Y-99000000D03*
X164340000Y-99000000D03*
X161800000Y-99000000D03*
X159260000Y-99000000D03*
X156720000Y-99000000D03*
%TD*%
D12*
%TO.C,R1*%
X155340000Y-94500000D03*
D13*
X165500000Y-94500000D03*
%TD*%
D14*
%TO.C,H2*%
X150000000Y-136000000D03*
%TD*%
%TO.C,H4*%
X201000000Y-136000000D03*
%TD*%
%TO.C,H1*%
X150000000Y-79500000D03*
%TD*%
%TO.C,H3*%
X201000000Y-79500000D03*
%TD*%
D12*
%TO.C,R2*%
X168840000Y-94500000D03*
D13*
X179000000Y-94500000D03*
%TD*%
D15*
%TO.C,J1*%
X157500000Y-57000000D03*
D16*
X157500000Y-62000000D03*
X157500000Y-67000000D03*
X157500000Y-72000000D03*
%TD*%
D17*
%TO.C,A1*%
X183500000Y-54500000D03*
D13*
X180960000Y-54500000D03*
X178420000Y-54500000D03*
X175880000Y-54500000D03*
X173340000Y-54500000D03*
X170800000Y-54500000D03*
X168260000Y-54500000D03*
X165720000Y-54500000D03*
X165720000Y-67200000D03*
X168260000Y-67200000D03*
X170800000Y-67200000D03*
X173340000Y-67200000D03*
X175880000Y-67200000D03*
X178420000Y-67200000D03*
X180960000Y-67200000D03*
X183500000Y-67200000D03*
%TD*%
D15*
%TO.C,J2*%
X193000000Y-72500000D03*
D16*
X193000000Y-67500000D03*
X193000000Y-62500000D03*
X193000000Y-57500000D03*
%TD*%
D18*
%TO.C,J7*%
X171850000Y-129000000D03*
D19*
X176850000Y-129000000D03*
%TD*%
D18*
%TO.C,J6*%
X158350000Y-129000000D03*
D19*
X163350000Y-129000000D03*
%TD*%
D17*
%TO.C,A2*%
X178500000Y-90000000D03*
D13*
X178500000Y-87460000D03*
X178500000Y-84920000D03*
X178500000Y-82380000D03*
X178500000Y-79840000D03*
X178500000Y-77300000D03*
X178500000Y-74760000D03*
X178500000Y-72220000D03*
X165800000Y-72220000D03*
X165800000Y-74760000D03*
X165800000Y-77300000D03*
X165800000Y-79840000D03*
X165800000Y-82380000D03*
X165800000Y-84920000D03*
X165800000Y-87460000D03*
X165800000Y-90000000D03*
%TD*%
D15*
%TO.C,J5*%
X160000000Y-119150000D03*
D16*
X160000000Y-114150000D03*
%TD*%
D20*
%TO.C,J3*%
X149460000Y-83740000D03*
D21*
X152000000Y-83740000D03*
X149460000Y-86280000D03*
X152000000Y-86280000D03*
X149460000Y-88820000D03*
X152000000Y-88820000D03*
X149460000Y-91360000D03*
X152000000Y-91360000D03*
X149460000Y-93900000D03*
X152000000Y-93900000D03*
X149460000Y-96440000D03*
X152000000Y-96440000D03*
X149460000Y-98980000D03*
X152000000Y-98980000D03*
X149460000Y-101520000D03*
X152000000Y-101520000D03*
X149460000Y-104060000D03*
X152000000Y-104060000D03*
X149460000Y-106600000D03*
X152000000Y-106600000D03*
X149460000Y-109140000D03*
X152000000Y-109140000D03*
X149460000Y-111680000D03*
X152000000Y-111680000D03*
X149460000Y-114220000D03*
X152000000Y-114220000D03*
X149460000Y-116760000D03*
X152000000Y-116760000D03*
X149460000Y-119300000D03*
X152000000Y-119300000D03*
X149460000Y-121840000D03*
X152000000Y-121840000D03*
X149460000Y-124380000D03*
X152000000Y-124380000D03*
X149460000Y-126920000D03*
X152000000Y-126920000D03*
X149460000Y-129460000D03*
X152000000Y-129460000D03*
X149460000Y-132000000D03*
X152000000Y-132000000D03*
%TD*%
M02*
