%TF.GenerationSoftware,KiCad,Pcbnew,8.0.1*%
%TF.CreationDate,2024-05-06T13:05:29+02:00*%
%TF.ProjectId,BotBattle,426f7442-6174-4746-9c65-2e6b69636164,rev?*%
%TF.SameCoordinates,Original*%
%TF.FileFunction,Legend,Bot*%
%TF.FilePolarity,Positive*%
%FSLAX46Y46*%
G04 Gerber Fmt 4.6, Leading zero omitted, Abs format (unit mm)*
G04 Created by KiCad (PCBNEW 8.0.1) date 2024-05-06 13:05:29*
%MOMM*%
%LPD*%
G01*
G04 APERTURE LIST*
%ADD10C,0.150000*%
%ADD11C,0.120000*%
G04 APERTURE END LIST*
D10*
X155133333Y-83854819D02*
X155133333Y-84569104D01*
X155133333Y-84569104D02*
X155180952Y-84711961D01*
X155180952Y-84711961D02*
X155276190Y-84807200D01*
X155276190Y-84807200D02*
X155419047Y-84854819D01*
X155419047Y-84854819D02*
X155514285Y-84854819D01*
X154752380Y-83854819D02*
X154133333Y-83854819D01*
X154133333Y-83854819D02*
X154466666Y-84235771D01*
X154466666Y-84235771D02*
X154323809Y-84235771D01*
X154323809Y-84235771D02*
X154228571Y-84283390D01*
X154228571Y-84283390D02*
X154180952Y-84331009D01*
X154180952Y-84331009D02*
X154133333Y-84426247D01*
X154133333Y-84426247D02*
X154133333Y-84664342D01*
X154133333Y-84664342D02*
X154180952Y-84759580D01*
X154180952Y-84759580D02*
X154228571Y-84807200D01*
X154228571Y-84807200D02*
X154323809Y-84854819D01*
X154323809Y-84854819D02*
X154609523Y-84854819D01*
X154609523Y-84854819D02*
X154704761Y-84807200D01*
X154704761Y-84807200D02*
X154752380Y-84759580D01*
D11*
%TO.C,J3*%
X148130000Y-82410000D02*
X149460000Y-82410000D01*
X148130000Y-83740000D02*
X148130000Y-82410000D01*
X148130000Y-85010000D02*
X150730000Y-85010000D01*
X148130000Y-133330000D02*
X148130000Y-85010000D01*
X148130000Y-133330000D02*
X153330000Y-133330000D01*
X150730000Y-82410000D02*
X153330000Y-82410000D01*
X150730000Y-85010000D02*
X150730000Y-82410000D01*
X153330000Y-133330000D02*
X153330000Y-82410000D01*
%TD*%
M02*
