M48
; DRILL file {KiCad 8.0.1} date 2024-05-06T13:01:12+0200
; FORMAT={-:-/ absolute / inch / decimal}
; #@! TF.CreationDate,2024-05-06T13:01:12+02:00
; #@! TF.GenerationSoftware,Kicad,Pcbnew,8.0.1
; #@! TF.FileFunction,Plated,1,2,PTH
FMAT,2
INCH
; #@! TA.AperFunction,Plated,PTH,ViaDrill
T1C0.0118
; #@! TA.AperFunction,Plated,PTH,ViaDrill
T2C0.0197
; #@! TA.AperFunction,Plated,PTH,ComponentDrill
T3C0.0315
; #@! TA.AperFunction,Plated,PTH,ComponentDrill
T4C0.0320
; #@! TA.AperFunction,Plated,PTH,ComponentDrill
T5C0.0394
; #@! TA.AperFunction,Plated,PTH,ComponentDrill
T6C0.0453
%
G90
G05
T1
X6.005Y-3.1545
X6.2184Y-4.5153
X6.4525Y-4.6323
X6.5314Y-2.4997
X6.5648Y-3.8189
X6.8124Y-2.3321
X6.899Y-2.3321
T2
X6.5807Y-4.6369
X6.963Y-4.2546
T3
X6.1157Y-3.7205
X6.5157Y-3.7205
X6.5244Y-2.1457
X6.5244Y-2.6457
X6.5276Y-2.8433
X6.5276Y-2.9433
X6.5276Y-3.0433
X6.5276Y-3.1433
X6.5276Y-3.2433
X6.5276Y-3.3433
X6.5276Y-3.4433
X6.5276Y-3.5433
X6.6244Y-2.1457
X6.6244Y-2.6457
X6.6472Y-3.7205
X6.7244Y-2.1457
X6.7244Y-2.6457
X6.8244Y-2.1457
X6.8244Y-2.6457
X6.9244Y-2.1457
X6.9244Y-2.6457
X7.0244Y-2.1457
X7.0244Y-2.6457
X7.0276Y-2.8433
X7.0276Y-2.9433
X7.0276Y-3.0433
X7.0276Y-3.1433
X7.0276Y-3.2433
X7.0276Y-3.3433
X7.0276Y-3.4433
X7.0276Y-3.5433
X7.0472Y-3.7205
X7.1244Y-2.1457
X7.1244Y-2.6457
X7.2244Y-2.1457
X7.2244Y-2.6457
T4
X6.1701Y-3.8976
X6.1701Y-4.1976
X6.2701Y-3.8976
X6.2701Y-4.1976
X6.3701Y-3.8976
X6.3701Y-4.1976
X6.4701Y-3.8976
X6.4701Y-4.1976
X6.5701Y-3.8976
X6.5701Y-4.1976
X6.6701Y-3.8976
X6.6701Y-4.1976
X6.7701Y-3.8976
X6.7701Y-4.1976
X6.8701Y-3.8976
X6.8701Y-4.1976
T5
X5.8843Y-3.2969
X5.8843Y-3.3969
X5.8843Y-3.4969
X5.8843Y-3.5969
X5.8843Y-3.6969
X5.8843Y-3.7969
X5.8843Y-3.8969
X5.8843Y-3.9969
X5.8843Y-4.0969
X5.8843Y-4.1969
X5.8843Y-4.2969
X5.8843Y-4.3969
X5.8843Y-4.4969
X5.8843Y-4.5969
X5.8843Y-4.6969
X5.8843Y-4.7969
X5.8843Y-4.8969
X5.8843Y-4.9969
X5.8843Y-5.0969
X5.8843Y-5.1969
X5.9843Y-3.2969
X5.9843Y-3.3969
X5.9843Y-3.4969
X5.9843Y-3.5969
X5.9843Y-3.6969
X5.9843Y-3.7969
X5.9843Y-3.8969
X5.9843Y-3.9969
X5.9843Y-4.0969
X5.9843Y-4.1969
X5.9843Y-4.2969
X5.9843Y-4.3969
X5.9843Y-4.4969
X5.9843Y-4.5969
X5.9843Y-4.6969
X5.9843Y-4.7969
X5.9843Y-4.8969
X5.9843Y-4.9969
X5.9843Y-5.0969
X5.9843Y-5.1969
T6
X6.2008Y-2.2441
X6.2008Y-2.4409
X6.2008Y-2.6378
X6.2008Y-2.8346
X6.2343Y-5.0787
X6.2992Y-4.4941
X6.2992Y-4.6909
X6.4311Y-5.0787
X6.7657Y-5.0787
X6.9626Y-5.0787
X7.5984Y-2.2638
X7.5984Y-2.4606
X7.5984Y-2.6575
X7.5984Y-2.8543
M30
